<?xml version="1.0" encoding="utf-8" standalone="no"?>
<!DOCTYPE svg PUBLIC "-//W3C//DTD SVG 1.1//EN"
  "http://www.w3.org/Graphics/SVG/1.1/DTD/svg11.dtd">
<!-- Created with matplotlib (http://matplotlib.org/) -->
<svg height="350pt" version="1.1" viewBox="0 0 611 350" width="611pt" xmlns="http://www.w3.org/2000/svg" xmlns:xlink="http://www.w3.org/1999/xlink">
 <defs>
  <style type="text/css">
*{stroke-linecap:butt;stroke-linejoin:round;}
  </style>
 </defs>
 <g id="figure_1">
  <g id="patch_1">
   <path d="M 0 350.64 
L 611.28 350.64 
L 611.28 0 
L 0 0 
z
" style="fill:#ffffff;"/>
  </g>
  <g id="axes_1">
   <g id="patch_2">
    <path d="M 76.41 164.8008 
L 291.747273 164.8008 
L 291.747273 42.0768 
L 76.41 42.0768 
z
" style="fill:#ffffff;"/>
   </g>
   <g id="matplotlib.axis_1">
    <g id="xtick_1">
     <g id="line2d_1">
      <path clip-path="url(#p57632b7e28)" d="M 86.198058 164.8008 
L 86.198058 42.0768 
" style="fill:none;stroke:#b0b0b0;stroke-linecap:square;stroke-width:0.8;"/>
     </g>
     <g id="line2d_2">
      <defs>
       <path d="M 0 0 
L 0 3.5 
" id="m2a1c9360f7" style="stroke:#000000;stroke-width:0.8;"/>
      </defs>
      <g>
       <use style="stroke:#000000;stroke-width:0.8;" x="86.198058" xlink:href="#m2a1c9360f7" y="164.8008"/>
      </g>
     </g>
     <g id="text_1">
      <!-- 0 -->
      <defs>
       <path d="M 31.78125 66.40625 
Q 24.171875 66.40625 20.328125 58.90625 
Q 16.5 51.421875 16.5 36.375 
Q 16.5 21.390625 20.328125 13.890625 
Q 24.171875 6.390625 31.78125 6.390625 
Q 39.453125 6.390625 43.28125 13.890625 
Q 47.125 21.390625 47.125 36.375 
Q 47.125 51.421875 43.28125 58.90625 
Q 39.453125 66.40625 31.78125 66.40625 
z
M 31.78125 74.21875 
Q 44.046875 74.21875 50.515625 64.515625 
Q 56.984375 54.828125 56.984375 36.375 
Q 56.984375 17.96875 50.515625 8.265625 
Q 44.046875 -1.421875 31.78125 -1.421875 
Q 19.53125 -1.421875 13.0625 8.265625 
Q 6.59375 17.96875 6.59375 36.375 
Q 6.59375 54.828125 13.0625 64.515625 
Q 19.53125 74.21875 31.78125 74.21875 
z
" id="DejaVuSans-30"/>
      </defs>
      <g transform="translate(83.016808 179.399237)scale(0.1 -0.1)">
       <use xlink:href="#DejaVuSans-30"/>
      </g>
     </g>
    </g>
    <g id="xtick_2">
     <g id="line2d_3">
      <path clip-path="url(#p57632b7e28)" d="M 125.350289 164.8008 
L 125.350289 42.0768 
" style="fill:none;stroke:#b0b0b0;stroke-linecap:square;stroke-width:0.8;"/>
     </g>
     <g id="line2d_4">
      <g>
       <use style="stroke:#000000;stroke-width:0.8;" x="125.350289" xlink:href="#m2a1c9360f7" y="164.8008"/>
      </g>
     </g>
     <g id="text_2">
      <!-- 2 -->
      <defs>
       <path d="M 19.1875 8.296875 
L 53.609375 8.296875 
L 53.609375 0 
L 7.328125 0 
L 7.328125 8.296875 
Q 12.9375 14.109375 22.625 23.890625 
Q 32.328125 33.6875 34.8125 36.53125 
Q 39.546875 41.84375 41.421875 45.53125 
Q 43.3125 49.21875 43.3125 52.78125 
Q 43.3125 58.59375 39.234375 62.25 
Q 35.15625 65.921875 28.609375 65.921875 
Q 23.96875 65.921875 18.8125 64.3125 
Q 13.671875 62.703125 7.8125 59.421875 
L 7.8125 69.390625 
Q 13.765625 71.78125 18.9375 73 
Q 24.125 74.21875 28.421875 74.21875 
Q 39.75 74.21875 46.484375 68.546875 
Q 53.21875 62.890625 53.21875 53.421875 
Q 53.21875 48.921875 51.53125 44.890625 
Q 49.859375 40.875 45.40625 35.40625 
Q 44.1875 33.984375 37.640625 27.21875 
Q 31.109375 20.453125 19.1875 8.296875 
z
" id="DejaVuSans-32"/>
      </defs>
      <g transform="translate(122.169039 179.399237)scale(0.1 -0.1)">
       <use xlink:href="#DejaVuSans-32"/>
      </g>
     </g>
    </g>
    <g id="xtick_3">
     <g id="line2d_5">
      <path clip-path="url(#p57632b7e28)" d="M 164.502521 164.8008 
L 164.502521 42.0768 
" style="fill:none;stroke:#b0b0b0;stroke-linecap:square;stroke-width:0.8;"/>
     </g>
     <g id="line2d_6">
      <g>
       <use style="stroke:#000000;stroke-width:0.8;" x="164.502521" xlink:href="#m2a1c9360f7" y="164.8008"/>
      </g>
     </g>
     <g id="text_3">
      <!-- 4 -->
      <defs>
       <path d="M 37.796875 64.3125 
L 12.890625 25.390625 
L 37.796875 25.390625 
z
M 35.203125 72.90625 
L 47.609375 72.90625 
L 47.609375 25.390625 
L 58.015625 25.390625 
L 58.015625 17.1875 
L 47.609375 17.1875 
L 47.609375 0 
L 37.796875 0 
L 37.796875 17.1875 
L 4.890625 17.1875 
L 4.890625 26.703125 
z
" id="DejaVuSans-34"/>
      </defs>
      <g transform="translate(161.321271 179.399237)scale(0.1 -0.1)">
       <use xlink:href="#DejaVuSans-34"/>
      </g>
     </g>
    </g>
    <g id="xtick_4">
     <g id="line2d_7">
      <path clip-path="url(#p57632b7e28)" d="M 203.654752 164.8008 
L 203.654752 42.0768 
" style="fill:none;stroke:#b0b0b0;stroke-linecap:square;stroke-width:0.8;"/>
     </g>
     <g id="line2d_8">
      <g>
       <use style="stroke:#000000;stroke-width:0.8;" x="203.654752" xlink:href="#m2a1c9360f7" y="164.8008"/>
      </g>
     </g>
     <g id="text_4">
      <!-- 6 -->
      <defs>
       <path d="M 33.015625 40.375 
Q 26.375 40.375 22.484375 35.828125 
Q 18.609375 31.296875 18.609375 23.390625 
Q 18.609375 15.53125 22.484375 10.953125 
Q 26.375 6.390625 33.015625 6.390625 
Q 39.65625 6.390625 43.53125 10.953125 
Q 47.40625 15.53125 47.40625 23.390625 
Q 47.40625 31.296875 43.53125 35.828125 
Q 39.65625 40.375 33.015625 40.375 
z
M 52.59375 71.296875 
L 52.59375 62.3125 
Q 48.875 64.0625 45.09375 64.984375 
Q 41.3125 65.921875 37.59375 65.921875 
Q 27.828125 65.921875 22.671875 59.328125 
Q 17.53125 52.734375 16.796875 39.40625 
Q 19.671875 43.65625 24.015625 45.921875 
Q 28.375 48.1875 33.59375 48.1875 
Q 44.578125 48.1875 50.953125 41.515625 
Q 57.328125 34.859375 57.328125 23.390625 
Q 57.328125 12.15625 50.6875 5.359375 
Q 44.046875 -1.421875 33.015625 -1.421875 
Q 20.359375 -1.421875 13.671875 8.265625 
Q 6.984375 17.96875 6.984375 36.375 
Q 6.984375 53.65625 15.1875 63.9375 
Q 23.390625 74.21875 37.203125 74.21875 
Q 40.921875 74.21875 44.703125 73.484375 
Q 48.484375 72.75 52.59375 71.296875 
z
" id="DejaVuSans-36"/>
      </defs>
      <g transform="translate(200.473502 179.399237)scale(0.1 -0.1)">
       <use xlink:href="#DejaVuSans-36"/>
      </g>
     </g>
    </g>
    <g id="xtick_5">
     <g id="line2d_9">
      <path clip-path="url(#p57632b7e28)" d="M 242.806983 164.8008 
L 242.806983 42.0768 
" style="fill:none;stroke:#b0b0b0;stroke-linecap:square;stroke-width:0.8;"/>
     </g>
     <g id="line2d_10">
      <g>
       <use style="stroke:#000000;stroke-width:0.8;" x="242.806983" xlink:href="#m2a1c9360f7" y="164.8008"/>
      </g>
     </g>
     <g id="text_5">
      <!-- 8 -->
      <defs>
       <path d="M 31.78125 34.625 
Q 24.75 34.625 20.71875 30.859375 
Q 16.703125 27.09375 16.703125 20.515625 
Q 16.703125 13.921875 20.71875 10.15625 
Q 24.75 6.390625 31.78125 6.390625 
Q 38.8125 6.390625 42.859375 10.171875 
Q 46.921875 13.96875 46.921875 20.515625 
Q 46.921875 27.09375 42.890625 30.859375 
Q 38.875 34.625 31.78125 34.625 
z
M 21.921875 38.8125 
Q 15.578125 40.375 12.03125 44.71875 
Q 8.5 49.078125 8.5 55.328125 
Q 8.5 64.0625 14.71875 69.140625 
Q 20.953125 74.21875 31.78125 74.21875 
Q 42.671875 74.21875 48.875 69.140625 
Q 55.078125 64.0625 55.078125 55.328125 
Q 55.078125 49.078125 51.53125 44.71875 
Q 48 40.375 41.703125 38.8125 
Q 48.828125 37.15625 52.796875 32.3125 
Q 56.78125 27.484375 56.78125 20.515625 
Q 56.78125 9.90625 50.3125 4.234375 
Q 43.84375 -1.421875 31.78125 -1.421875 
Q 19.734375 -1.421875 13.25 4.234375 
Q 6.78125 9.90625 6.78125 20.515625 
Q 6.78125 27.484375 10.78125 32.3125 
Q 14.796875 37.15625 21.921875 38.8125 
z
M 18.3125 54.390625 
Q 18.3125 48.734375 21.84375 45.5625 
Q 25.390625 42.390625 31.78125 42.390625 
Q 38.140625 42.390625 41.71875 45.5625 
Q 45.3125 48.734375 45.3125 54.390625 
Q 45.3125 60.0625 41.71875 63.234375 
Q 38.140625 66.40625 31.78125 66.40625 
Q 25.390625 66.40625 21.84375 63.234375 
Q 18.3125 60.0625 18.3125 54.390625 
z
" id="DejaVuSans-38"/>
      </defs>
      <g transform="translate(239.625733 179.399237)scale(0.1 -0.1)">
       <use xlink:href="#DejaVuSans-38"/>
      </g>
     </g>
    </g>
    <g id="xtick_6">
     <g id="line2d_11">
      <path clip-path="url(#p57632b7e28)" d="M 281.959215 164.8008 
L 281.959215 42.0768 
" style="fill:none;stroke:#b0b0b0;stroke-linecap:square;stroke-width:0.8;"/>
     </g>
     <g id="line2d_12">
      <g>
       <use style="stroke:#000000;stroke-width:0.8;" x="281.959215" xlink:href="#m2a1c9360f7" y="164.8008"/>
      </g>
     </g>
     <g id="text_6">
      <!-- 10 -->
      <defs>
       <path d="M 12.40625 8.296875 
L 28.515625 8.296875 
L 28.515625 63.921875 
L 10.984375 60.40625 
L 10.984375 69.390625 
L 28.421875 72.90625 
L 38.28125 72.90625 
L 38.28125 8.296875 
L 54.390625 8.296875 
L 54.390625 0 
L 12.40625 0 
z
" id="DejaVuSans-31"/>
      </defs>
      <g transform="translate(275.596715 179.399237)scale(0.1 -0.1)">
       <use xlink:href="#DejaVuSans-31"/>
       <use x="63.623047" xlink:href="#DejaVuSans-30"/>
      </g>
     </g>
    </g>
   </g>
   <g id="matplotlib.axis_2">
    <g id="ytick_1">
     <g id="line2d_13">
      <path clip-path="url(#p57632b7e28)" d="M 76.41 159.256784 
L 291.747273 159.256784 
" style="fill:none;stroke:#b0b0b0;stroke-linecap:square;stroke-width:0.8;"/>
     </g>
     <g id="line2d_14">
      <defs>
       <path d="M 0 0 
L -3.5 0 
" id="m554bcb1632" style="stroke:#000000;stroke-width:0.8;"/>
      </defs>
      <g>
       <use style="stroke:#000000;stroke-width:0.8;" x="76.41" xlink:href="#m554bcb1632" y="159.256784"/>
      </g>
     </g>
     <g id="text_7">
      <!-- −1.0 -->
      <defs>
       <path d="M 10.59375 35.5 
L 73.1875 35.5 
L 73.1875 27.203125 
L 10.59375 27.203125 
z
" id="DejaVuSans-2212"/>
       <path d="M 10.6875 12.40625 
L 21 12.40625 
L 21 0 
L 10.6875 0 
z
" id="DejaVuSans-2e"/>
      </defs>
      <g transform="translate(45.127187 163.056003)scale(0.1 -0.1)">
       <use xlink:href="#DejaVuSans-2212"/>
       <use x="83.789062" xlink:href="#DejaVuSans-31"/>
       <use x="147.412109" xlink:href="#DejaVuSans-2e"/>
       <use x="179.199219" xlink:href="#DejaVuSans-30"/>
      </g>
     </g>
    </g>
    <g id="ytick_2">
     <g id="line2d_15">
      <path clip-path="url(#p57632b7e28)" d="M 76.41 131.352086 
L 291.747273 131.352086 
" style="fill:none;stroke:#b0b0b0;stroke-linecap:square;stroke-width:0.8;"/>
     </g>
     <g id="line2d_16">
      <g>
       <use style="stroke:#000000;stroke-width:0.8;" x="76.41" xlink:href="#m554bcb1632" y="131.352086"/>
      </g>
     </g>
     <g id="text_8">
      <!-- −0.5 -->
      <defs>
       <path d="M 10.796875 72.90625 
L 49.515625 72.90625 
L 49.515625 64.59375 
L 19.828125 64.59375 
L 19.828125 46.734375 
Q 21.96875 47.46875 24.109375 47.828125 
Q 26.265625 48.1875 28.421875 48.1875 
Q 40.625 48.1875 47.75 41.5 
Q 54.890625 34.8125 54.890625 23.390625 
Q 54.890625 11.625 47.5625 5.09375 
Q 40.234375 -1.421875 26.90625 -1.421875 
Q 22.3125 -1.421875 17.546875 -0.640625 
Q 12.796875 0.140625 7.71875 1.703125 
L 7.71875 11.625 
Q 12.109375 9.234375 16.796875 8.0625 
Q 21.484375 6.890625 26.703125 6.890625 
Q 35.15625 6.890625 40.078125 11.328125 
Q 45.015625 15.765625 45.015625 23.390625 
Q 45.015625 31 40.078125 35.4375 
Q 35.15625 39.890625 26.703125 39.890625 
Q 22.75 39.890625 18.8125 39.015625 
Q 14.890625 38.140625 10.796875 36.28125 
z
" id="DejaVuSans-35"/>
      </defs>
      <g transform="translate(45.127187 135.151305)scale(0.1 -0.1)">
       <use xlink:href="#DejaVuSans-2212"/>
       <use x="83.789062" xlink:href="#DejaVuSans-30"/>
       <use x="147.412109" xlink:href="#DejaVuSans-2e"/>
       <use x="179.199219" xlink:href="#DejaVuSans-35"/>
      </g>
     </g>
    </g>
    <g id="ytick_3">
     <g id="line2d_17">
      <path clip-path="url(#p57632b7e28)" d="M 76.41 103.447389 
L 291.747273 103.447389 
" style="fill:none;stroke:#b0b0b0;stroke-linecap:square;stroke-width:0.8;"/>
     </g>
     <g id="line2d_18">
      <g>
       <use style="stroke:#000000;stroke-width:0.8;" x="76.41" xlink:href="#m554bcb1632" y="103.447389"/>
      </g>
     </g>
     <g id="text_9">
      <!-- 0.0 -->
      <g transform="translate(53.506875 107.246607)scale(0.1 -0.1)">
       <use xlink:href="#DejaVuSans-30"/>
       <use x="63.623047" xlink:href="#DejaVuSans-2e"/>
       <use x="95.410156" xlink:href="#DejaVuSans-30"/>
      </g>
     </g>
    </g>
    <g id="ytick_4">
     <g id="line2d_19">
      <path clip-path="url(#p57632b7e28)" d="M 76.41 75.542691 
L 291.747273 75.542691 
" style="fill:none;stroke:#b0b0b0;stroke-linecap:square;stroke-width:0.8;"/>
     </g>
     <g id="line2d_20">
      <g>
       <use style="stroke:#000000;stroke-width:0.8;" x="76.41" xlink:href="#m554bcb1632" y="75.542691"/>
      </g>
     </g>
     <g id="text_10">
      <!-- 0.5 -->
      <g transform="translate(53.506875 79.34191)scale(0.1 -0.1)">
       <use xlink:href="#DejaVuSans-30"/>
       <use x="63.623047" xlink:href="#DejaVuSans-2e"/>
       <use x="95.410156" xlink:href="#DejaVuSans-35"/>
      </g>
     </g>
    </g>
    <g id="ytick_5">
     <g id="line2d_21">
      <path clip-path="url(#p57632b7e28)" d="M 76.41 47.637993 
L 291.747273 47.637993 
" style="fill:none;stroke:#b0b0b0;stroke-linecap:square;stroke-width:0.8;"/>
     </g>
     <g id="line2d_22">
      <g>
       <use style="stroke:#000000;stroke-width:0.8;" x="76.41" xlink:href="#m554bcb1632" y="47.637993"/>
      </g>
     </g>
     <g id="text_11">
      <!-- 1.0 -->
      <g transform="translate(53.506875 51.437212)scale(0.1 -0.1)">
       <use xlink:href="#DejaVuSans-31"/>
       <use x="63.623047" xlink:href="#DejaVuSans-2e"/>
       <use x="95.410156" xlink:href="#DejaVuSans-30"/>
      </g>
     </g>
    </g>
   </g>
   <g id="line2d_23">
    <path clip-path="url(#p57632b7e28)" d="M 86.198058 103.447389 
L 88.175443 97.819657 
L 90.152829 92.249297 
L 92.130214 86.793095 
L 94.1076 81.506672 
L 96.084985 76.443921 
L 98.06237 71.656454 
L 100.039756 67.193075 
L 102.017141 63.099285 
L 103.994527 59.416819 
L 105.971912 56.183217 
L 107.949298 53.431444 
L 109.926683 51.189551 
L 111.904068 49.480394 
L 113.881454 48.321397 
L 115.858839 47.724374 
L 117.836225 47.695412 
L 119.81361 48.234806 
L 121.790995 49.337057 
L 123.768381 50.99093 
L 125.745766 53.179562 
L 127.723152 55.880644 
L 129.700537 59.066638 
L 131.677923 62.705066 
L 133.655308 66.758837 
L 135.632693 71.186623 
L 137.610079 75.943288 
L 139.587464 80.98034 
L 141.56485 86.24643 
L 143.542235 91.687872 
L 145.519621 97.249195 
L 147.497006 102.873705 
L 149.474391 108.504063 
L 151.451777 114.082871 
L 153.429162 119.553258 
L 155.406548 124.859455 
L 157.383933 129.94737 
L 159.361319 134.765134 
L 161.338704 139.263634 
L 163.316089 143.397009 
L 165.293475 147.123124 
L 167.27086 150.403992 
L 169.248246 153.206167 
L 171.225631 155.501083 
L 173.203017 157.265344 
L 175.180402 158.480965 
L 177.157787 159.135553 
L 179.135173 159.222436 
L 181.112558 158.740728 
L 183.089944 157.695339 
L 185.067329 156.096926 
L 187.044715 153.961785 
L 189.0221 151.311681 
L 190.999485 148.173631 
L 192.976871 144.579625 
L 194.954256 140.566302 
L 196.931642 136.174575 
L 198.909027 131.449215 
L 200.886412 126.438394 
L 202.863798 121.193195 
L 204.841183 115.767088 
L 206.818569 110.21539 
L 208.795954 104.594696 
L 210.77334 98.962306 
L 212.750725 93.375638 
L 214.72811 87.891646 
L 216.705496 82.566235 
L 218.682881 77.453694 
L 220.660267 72.606142 
L 222.637652 68.072997 
L 224.615038 63.900472 
L 226.592423 60.131102 
L 228.569808 56.803315 
L 230.547194 53.951035 
L 232.524579 51.603339 
L 234.501965 49.78416 
L 236.47935 48.512043 
L 238.456736 47.799958 
L 240.434121 47.655164 
L 242.411506 48.079135 
L 244.388892 49.067552 
L 246.366277 50.610336 
L 248.343663 52.691761 
L 250.321048 55.290607 
L 252.298434 58.380381 
L 254.275819 61.929585 
L 256.253204 65.902036 
L 258.23059 70.257239 
L 260.207975 74.950794 
L 262.185361 79.934855 
L 264.162746 85.15861 
L 266.140131 90.568808 
L 268.117517 96.110295 
L 270.094902 101.72658 
L 272.072288 107.360406 
L 274.049673 112.954342 
L 276.027059 118.451361 
L 278.004444 123.795423 
L 279.981829 128.932051 
L 281.959215 133.808878 
" style="fill:none;stroke:#1f77b4;stroke-linecap:square;stroke-width:1.5;"/>
   </g>
   <g id="line2d_24">
    <path clip-path="url(#p57632b7e28)" d="M 86.198058 103.447389 
L 88.175443 100.633523 
L 90.152829 97.848343 
L 92.130214 95.120242 
L 94.1076 92.47703 
L 96.084985 89.945655 
L 98.06237 87.551921 
L 100.039756 85.320232 
L 102.017141 83.273337 
L 103.994527 81.432104 
L 105.971912 79.815303 
L 107.949298 78.439416 
L 109.926683 77.31847 
L 111.904068 76.463891 
L 113.881454 75.884393 
L 115.858839 75.585881 
L 117.836225 75.5714 
L 119.81361 75.841097 
L 121.790995 76.392223 
L 123.768381 77.219159 
L 125.745766 78.313475 
L 127.723152 79.664016 
L 129.700537 81.257013 
L 131.677923 83.076227 
L 133.655308 85.103113 
L 135.632693 87.317006 
L 137.610079 89.695339 
L 139.587464 92.213865 
L 141.56485 94.846909 
L 143.542235 97.56763 
L 145.519621 100.348292 
L 147.497006 103.160547 
L 149.474391 105.975726 
L 151.451777 108.76513 
L 153.429162 111.500323 
L 155.406548 114.153422 
L 157.383933 116.697379 
L 159.361319 119.106261 
L 161.338704 121.355511 
L 163.316089 123.422199 
L 165.293475 125.285256 
L 167.27086 126.92569 
L 169.248246 128.326778 
L 171.225631 129.474236 
L 173.203017 130.356366 
L 175.180402 130.964177 
L 177.157787 131.291471 
L 179.135173 131.334912 
L 181.112558 131.094058 
L 183.089944 130.571364 
L 185.067329 129.772157 
L 187.044715 128.704587 
L 189.0221 127.379535 
L 190.999485 125.81051 
L 192.976871 124.013507 
L 194.954256 122.006845 
L 196.931642 119.810982 
L 198.909027 117.448302 
L 200.886412 114.942891 
L 202.863798 112.320292 
L 204.841183 109.607238 
L 206.818569 106.831389 
L 208.795954 104.021042 
L 210.77334 101.204847 
L 212.750725 98.411513 
L 214.72811 95.669517 
L 216.705496 93.006812 
L 218.682881 90.450541 
L 220.660267 88.026765 
L 222.637652 85.760193 
L 224.615038 83.67393 
L 226.592423 81.789245 
L 228.569808 80.125352 
L 230.547194 78.699212 
L 232.524579 77.525364 
L 234.501965 76.615774 
L 236.47935 75.979716 
L 238.456736 75.623673 
L 240.434121 75.551276 
L 242.411506 75.763262 
L 244.388892 76.25747 
L 246.366277 77.028862 
L 248.343663 78.069575 
L 250.321048 79.368998 
L 252.298434 80.913885 
L 254.275819 82.688487 
L 256.253204 84.674712 
L 258.23059 86.852314 
L 260.207975 89.199092 
L 262.185361 91.691122 
L 264.162746 94.302999 
L 266.140131 97.008098 
L 268.117517 99.778842 
L 270.094902 102.586984 
L 272.072288 105.403897 
L 274.049673 108.200865 
L 276.027059 110.949375 
L 278.004444 113.621406 
L 279.981829 116.18972 
L 281.959215 118.628133 
" style="fill:none;stroke:#ff7f0e;stroke-linecap:square;stroke-width:1.5;"/>
   </g>
   <g id="line2d_25">
    <path clip-path="url(#p57632b7e28)" d="M 86.198058 103.447389 
L 88.175443 102.321842 
L 90.152829 101.20777 
L 92.130214 100.11653 
L 94.1076 99.059245 
L 96.084985 98.046695 
L 98.06237 97.089202 
L 100.039756 96.196526 
L 102.017141 95.377768 
L 103.994527 94.641275 
L 105.971912 93.994554 
L 107.949298 93.4442 
L 109.926683 92.995821 
L 111.904068 92.65399 
L 113.881454 92.42219 
L 115.858839 92.302786 
L 117.836225 92.296993 
L 119.81361 92.404872 
L 121.790995 92.625322 
L 123.768381 92.956097 
L 125.745766 93.393823 
L 127.723152 93.93404 
L 129.700537 94.571239 
L 131.677923 95.298924 
L 133.655308 96.109678 
L 135.632693 96.995236 
L 137.610079 97.946569 
L 139.587464 98.953979 
L 141.56485 100.007197 
L 143.542235 101.095485 
L 145.519621 102.20775 
L 147.497006 103.332652 
L 149.474391 104.458723 
L 151.451777 105.574485 
L 153.429162 106.668562 
L 155.406548 107.729802 
L 157.383933 108.747385 
L 159.361319 109.710938 
L 161.338704 110.610638 
L 163.316089 111.437313 
L 165.293475 112.182536 
L 167.27086 112.838709 
L 169.248246 113.399144 
L 171.225631 113.858127 
L 173.203017 114.21098 
L 175.180402 114.454104 
L 177.157787 114.585022 
L 179.135173 114.602398 
L 181.112558 114.506056 
L 183.089944 114.296979 
L 185.067329 113.977296 
L 187.044715 113.550268 
L 189.0221 113.020247 
L 190.999485 112.392637 
L 192.976871 111.673836 
L 194.954256 110.871171 
L 196.931642 109.992826 
L 198.909027 109.047754 
L 200.886412 108.04559 
L 202.863798 106.99655 
L 204.841183 105.911328 
L 206.818569 104.800989 
L 208.795954 103.67685 
L 210.77334 102.550372 
L 212.750725 101.433039 
L 214.72811 100.33624 
L 216.705496 99.271158 
L 218.682881 98.24865 
L 220.660267 97.279139 
L 222.637652 96.37251 
L 224.615038 95.538005 
L 226.592423 94.784131 
L 228.569808 94.118574 
L 230.547194 93.548118 
L 232.524579 93.078579 
L 234.501965 92.714743 
L 236.47935 92.46032 
L 238.456736 92.317903 
L 240.434121 92.288944 
L 242.411506 92.373738 
L 244.388892 92.571421 
L 246.366277 92.879978 
L 248.343663 93.296263 
L 250.321048 93.816032 
L 252.298434 94.433987 
L 254.275819 95.143828 
L 256.253204 95.938318 
L 258.23059 96.809359 
L 260.207975 97.74807 
L 262.185361 98.744882 
L 264.162746 99.789633 
L 266.140131 100.871673 
L 268.117517 101.97997 
L 270.094902 103.103227 
L 272.072288 104.229992 
L 274.049673 105.348779 
L 276.027059 106.448183 
L 278.004444 107.516996 
L 279.981829 108.544321 
L 281.959215 109.519686 
" style="fill:none;stroke:#2ca02c;stroke-linecap:square;stroke-width:1.5;"/>
   </g>
   <g id="line2d_26">
    <path clip-path="url(#p57632b7e28)" d="M 86.198058 86.70457 
L 88.175443 86.789911 
L 90.152829 87.045065 
L 92.130214 87.46743 
L 94.1076 88.052701 
L 96.084985 88.79491 
L 98.06237 89.686493 
L 100.039756 90.718359 
L 102.017141 91.879989 
L 103.994527 93.159542 
L 105.971912 94.543973 
L 107.949298 96.019169 
L 109.926683 97.570091 
L 111.904068 99.180928 
L 113.881454 100.835258 
L 115.858839 102.516218 
L 117.836225 104.206671 
L 119.81361 105.889383 
L 121.790995 107.547201 
L 123.768381 109.163223 
L 125.745766 110.720977 
L 127.723152 112.20458 
L 129.700537 113.59891 
L 131.677923 114.889751 
L 133.655308 116.063945 
L 135.632693 117.10952 
L 137.610079 118.015819 
L 139.587464 118.773602 
L 141.56485 119.375144 
L 143.542235 119.814313 
L 145.519621 120.086631 
L 147.497006 120.189323 
L 149.474391 120.121341 
L 151.451777 119.883378 
L 153.429162 119.477862 
L 155.406548 118.908924 
L 157.383933 118.182366 
L 159.361319 117.305594 
L 161.338704 116.287547 
L 163.316089 115.138602 
L 165.293475 113.870473 
L 167.27086 112.496087 
L 169.248246 111.029455 
L 171.225631 109.485529 
L 173.203017 107.880048 
L 175.180402 106.229378 
L 177.157787 104.550348 
L 179.135173 102.860074 
L 181.112558 101.175788 
L 183.089944 99.514659 
L 185.067329 97.893621 
L 187.044715 96.329201 
L 189.0221 94.837346 
L 190.999485 93.433265 
L 192.976871 92.131272 
L 194.954256 90.944639 
L 196.931642 89.885464 
L 198.909027 88.964545 
L 200.886412 88.191268 
L 202.863798 87.573519 
L 204.841183 87.117593 
L 206.818569 86.828139 
L 208.795954 86.708108 
L 210.77334 86.758724 
L 212.750725 86.979469 
L 214.72811 87.368095 
L 216.705496 87.920639 
L 218.682881 88.631469 
L 220.660267 89.493337 
L 222.637652 90.497458 
L 224.615038 91.633596 
L 226.592423 92.890168 
L 228.569808 94.254363 
L 230.547194 95.712276 
L 232.524579 97.249044 
L 234.501965 98.849 
L 236.47935 100.495833 
L 238.456736 102.172756 
L 240.434121 103.862672 
L 242.411506 105.548356 
L 244.388892 107.212621 
L 246.366277 108.838502 
L 248.343663 110.409424 
L 250.321048 111.909372 
L 252.298434 113.323056 
L 254.275819 114.636064 
L 256.253204 115.83501 
L 258.23059 116.907672 
L 260.207975 117.843115 
L 262.185361 118.631803 
L 264.162746 119.265695 
L 266.140131 119.73833 
L 268.117517 120.044889 
L 270.094902 120.182246 
L 272.072288 120.149003 
L 274.049673 119.945497 
L 276.027059 119.573803 
L 278.004444 119.037711 
L 279.981829 118.342685 
L 281.959215 117.495811 
" style="fill:none;stroke:#d62728;stroke-linecap:square;stroke-width:1.5;"/>
   </g>
   <g id="patch_3">
    <path d="M 76.41 164.8008 
L 76.41 42.0768 
" style="fill:none;stroke:#000000;stroke-linecap:square;stroke-linejoin:miter;stroke-width:0.8;"/>
   </g>
   <g id="patch_4">
    <path d="M 291.747273 164.8008 
L 291.747273 42.0768 
" style="fill:none;stroke:#000000;stroke-linecap:square;stroke-linejoin:miter;stroke-width:0.8;"/>
   </g>
   <g id="patch_5">
    <path d="M 76.41 164.8008 
L 291.747273 164.8008 
" style="fill:none;stroke:#000000;stroke-linecap:square;stroke-linejoin:miter;stroke-width:0.8;"/>
   </g>
   <g id="patch_6">
    <path d="M 76.41 42.0768 
L 291.747273 42.0768 
" style="fill:none;stroke:#000000;stroke-linecap:square;stroke-linejoin:miter;stroke-width:0.8;"/>
   </g>
   <g id="legend_1">
    <g id="patch_7">
     <path d="M 83.41 159.8008 
L 158.442813 159.8008 
Q 160.442813 159.8008 160.442813 157.8008 
L 160.442813 100.0883 
Q 160.442813 98.0883 158.442813 98.0883 
L 83.41 98.0883 
Q 81.41 98.0883 81.41 100.0883 
L 81.41 157.8008 
Q 81.41 159.8008 83.41 159.8008 
z
" style="fill:#ffffff;opacity:0.8;stroke:#cccccc;stroke-linejoin:miter;"/>
    </g>
    <g id="line2d_27">
     <path d="M 85.41 106.186737 
L 105.41 106.186737 
" style="fill:none;stroke:#1f77b4;stroke-linecap:square;stroke-width:1.5;"/>
    </g>
    <g id="line2d_28"/>
    <g id="text_12">
     <!-- phi [rad] -->
     <defs>
      <path d="M 18.109375 8.203125 
L 18.109375 -20.796875 
L 9.078125 -20.796875 
L 9.078125 54.6875 
L 18.109375 54.6875 
L 18.109375 46.390625 
Q 20.953125 51.265625 25.265625 53.625 
Q 29.59375 56 35.59375 56 
Q 45.5625 56 51.78125 48.09375 
Q 58.015625 40.1875 58.015625 27.296875 
Q 58.015625 14.40625 51.78125 6.484375 
Q 45.5625 -1.421875 35.59375 -1.421875 
Q 29.59375 -1.421875 25.265625 0.953125 
Q 20.953125 3.328125 18.109375 8.203125 
z
M 48.6875 27.296875 
Q 48.6875 37.203125 44.609375 42.84375 
Q 40.53125 48.484375 33.40625 48.484375 
Q 26.265625 48.484375 22.1875 42.84375 
Q 18.109375 37.203125 18.109375 27.296875 
Q 18.109375 17.390625 22.1875 11.75 
Q 26.265625 6.109375 33.40625 6.109375 
Q 40.53125 6.109375 44.609375 11.75 
Q 48.6875 17.390625 48.6875 27.296875 
z
" id="DejaVuSans-70"/>
      <path d="M 54.890625 33.015625 
L 54.890625 0 
L 45.90625 0 
L 45.90625 32.71875 
Q 45.90625 40.484375 42.875 44.328125 
Q 39.84375 48.1875 33.796875 48.1875 
Q 26.515625 48.1875 22.3125 43.546875 
Q 18.109375 38.921875 18.109375 30.90625 
L 18.109375 0 
L 9.078125 0 
L 9.078125 75.984375 
L 18.109375 75.984375 
L 18.109375 46.1875 
Q 21.34375 51.125 25.703125 53.5625 
Q 30.078125 56 35.796875 56 
Q 45.21875 56 50.046875 50.171875 
Q 54.890625 44.34375 54.890625 33.015625 
z
" id="DejaVuSans-68"/>
      <path d="M 9.421875 54.6875 
L 18.40625 54.6875 
L 18.40625 0 
L 9.421875 0 
z
M 9.421875 75.984375 
L 18.40625 75.984375 
L 18.40625 64.59375 
L 9.421875 64.59375 
z
" id="DejaVuSans-69"/>
      <path id="DejaVuSans-20"/>
      <path d="M 8.59375 75.984375 
L 29.296875 75.984375 
L 29.296875 69 
L 17.578125 69 
L 17.578125 -6.203125 
L 29.296875 -6.203125 
L 29.296875 -13.1875 
L 8.59375 -13.1875 
z
" id="DejaVuSans-5b"/>
      <path d="M 41.109375 46.296875 
Q 39.59375 47.171875 37.8125 47.578125 
Q 36.03125 48 33.890625 48 
Q 26.265625 48 22.1875 43.046875 
Q 18.109375 38.09375 18.109375 28.8125 
L 18.109375 0 
L 9.078125 0 
L 9.078125 54.6875 
L 18.109375 54.6875 
L 18.109375 46.1875 
Q 20.953125 51.171875 25.484375 53.578125 
Q 30.03125 56 36.53125 56 
Q 37.453125 56 38.578125 55.875 
Q 39.703125 55.765625 41.0625 55.515625 
z
" id="DejaVuSans-72"/>
      <path d="M 34.28125 27.484375 
Q 23.390625 27.484375 19.1875 25 
Q 14.984375 22.515625 14.984375 16.5 
Q 14.984375 11.71875 18.140625 8.90625 
Q 21.296875 6.109375 26.703125 6.109375 
Q 34.1875 6.109375 38.703125 11.40625 
Q 43.21875 16.703125 43.21875 25.484375 
L 43.21875 27.484375 
z
M 52.203125 31.203125 
L 52.203125 0 
L 43.21875 0 
L 43.21875 8.296875 
Q 40.140625 3.328125 35.546875 0.953125 
Q 30.953125 -1.421875 24.3125 -1.421875 
Q 15.921875 -1.421875 10.953125 3.296875 
Q 6 8.015625 6 15.921875 
Q 6 25.140625 12.171875 29.828125 
Q 18.359375 34.515625 30.609375 34.515625 
L 43.21875 34.515625 
L 43.21875 35.40625 
Q 43.21875 41.609375 39.140625 45 
Q 35.0625 48.390625 27.6875 48.390625 
Q 23 48.390625 18.546875 47.265625 
Q 14.109375 46.140625 10.015625 43.890625 
L 10.015625 52.203125 
Q 14.9375 54.109375 19.578125 55.046875 
Q 24.21875 56 28.609375 56 
Q 40.484375 56 46.34375 49.84375 
Q 52.203125 43.703125 52.203125 31.203125 
z
" id="DejaVuSans-61"/>
      <path d="M 45.40625 46.390625 
L 45.40625 75.984375 
L 54.390625 75.984375 
L 54.390625 0 
L 45.40625 0 
L 45.40625 8.203125 
Q 42.578125 3.328125 38.25 0.953125 
Q 33.9375 -1.421875 27.875 -1.421875 
Q 17.96875 -1.421875 11.734375 6.484375 
Q 5.515625 14.40625 5.515625 27.296875 
Q 5.515625 40.1875 11.734375 48.09375 
Q 17.96875 56 27.875 56 
Q 33.9375 56 38.25 53.625 
Q 42.578125 51.265625 45.40625 46.390625 
z
M 14.796875 27.296875 
Q 14.796875 17.390625 18.875 11.75 
Q 22.953125 6.109375 30.078125 6.109375 
Q 37.203125 6.109375 41.296875 11.75 
Q 45.40625 17.390625 45.40625 27.296875 
Q 45.40625 37.203125 41.296875 42.84375 
Q 37.203125 48.484375 30.078125 48.484375 
Q 22.953125 48.484375 18.875 42.84375 
Q 14.796875 37.203125 14.796875 27.296875 
z
" id="DejaVuSans-64"/>
      <path d="M 30.421875 75.984375 
L 30.421875 -13.1875 
L 9.71875 -13.1875 
L 9.71875 -6.203125 
L 21.390625 -6.203125 
L 21.390625 69 
L 9.71875 69 
L 9.71875 75.984375 
z
" id="DejaVuSans-5d"/>
     </defs>
     <g transform="translate(113.41 109.686737)scale(0.1 -0.1)">
      <use xlink:href="#DejaVuSans-70"/>
      <use x="63.476562" xlink:href="#DejaVuSans-68"/>
      <use x="126.855469" xlink:href="#DejaVuSans-69"/>
      <use x="154.638672" xlink:href="#DejaVuSans-20"/>
      <use x="186.425781" xlink:href="#DejaVuSans-5b"/>
      <use x="225.439453" xlink:href="#DejaVuSans-72"/>
      <use x="266.552734" xlink:href="#DejaVuSans-61"/>
      <use x="327.832031" xlink:href="#DejaVuSans-64"/>
      <use x="391.308594" xlink:href="#DejaVuSans-5d"/>
     </g>
    </g>
    <g id="line2d_29">
     <path d="M 85.41 120.864862 
L 105.41 120.864862 
" style="fill:none;stroke:#ff7f0e;stroke-linecap:square;stroke-width:1.5;"/>
    </g>
    <g id="line2d_30"/>
    <g id="text_13">
     <!-- r[1] [m] -->
     <defs>
      <path d="M 52 44.1875 
Q 55.375 50.25 60.0625 53.125 
Q 64.75 56 71.09375 56 
Q 79.640625 56 84.28125 50.015625 
Q 88.921875 44.046875 88.921875 33.015625 
L 88.921875 0 
L 79.890625 0 
L 79.890625 32.71875 
Q 79.890625 40.578125 77.09375 44.375 
Q 74.3125 48.1875 68.609375 48.1875 
Q 61.625 48.1875 57.5625 43.546875 
Q 53.515625 38.921875 53.515625 30.90625 
L 53.515625 0 
L 44.484375 0 
L 44.484375 32.71875 
Q 44.484375 40.625 41.703125 44.40625 
Q 38.921875 48.1875 33.109375 48.1875 
Q 26.21875 48.1875 22.15625 43.53125 
Q 18.109375 38.875 18.109375 30.90625 
L 18.109375 0 
L 9.078125 0 
L 9.078125 54.6875 
L 18.109375 54.6875 
L 18.109375 46.1875 
Q 21.1875 51.21875 25.484375 53.609375 
Q 29.78125 56 35.6875 56 
Q 41.65625 56 45.828125 52.96875 
Q 50 49.953125 52 44.1875 
z
" id="DejaVuSans-6d"/>
     </defs>
     <g transform="translate(113.41 124.364862)scale(0.1 -0.1)">
      <use xlink:href="#DejaVuSans-72"/>
      <use x="41.113281" xlink:href="#DejaVuSans-5b"/>
      <use x="80.126953" xlink:href="#DejaVuSans-31"/>
      <use x="143.75" xlink:href="#DejaVuSans-5d"/>
      <use x="182.763672" xlink:href="#DejaVuSans-20"/>
      <use x="214.550781" xlink:href="#DejaVuSans-5b"/>
      <use x="253.564453" xlink:href="#DejaVuSans-6d"/>
      <use x="350.976562" xlink:href="#DejaVuSans-5d"/>
     </g>
    </g>
    <g id="line2d_31">
     <path d="M 85.41 135.542987 
L 105.41 135.542987 
" style="fill:none;stroke:#2ca02c;stroke-linecap:square;stroke-width:1.5;"/>
    </g>
    <g id="line2d_32"/>
    <g id="text_14">
     <!-- r[2] [m] -->
     <g transform="translate(113.41 139.042987)scale(0.1 -0.1)">
      <use xlink:href="#DejaVuSans-72"/>
      <use x="41.113281" xlink:href="#DejaVuSans-5b"/>
      <use x="80.126953" xlink:href="#DejaVuSans-32"/>
      <use x="143.75" xlink:href="#DejaVuSans-5d"/>
      <use x="182.763672" xlink:href="#DejaVuSans-20"/>
      <use x="214.550781" xlink:href="#DejaVuSans-5b"/>
      <use x="253.564453" xlink:href="#DejaVuSans-6d"/>
      <use x="350.976562" xlink:href="#DejaVuSans-5d"/>
     </g>
    </g>
    <g id="line2d_33">
     <path d="M 85.41 150.221113 
L 105.41 150.221113 
" style="fill:none;stroke:#d62728;stroke-linecap:square;stroke-width:1.5;"/>
    </g>
    <g id="line2d_34"/>
    <g id="text_15">
     <!-- r[3] [m] -->
     <defs>
      <path d="M 40.578125 39.3125 
Q 47.65625 37.796875 51.625 33 
Q 55.609375 28.21875 55.609375 21.1875 
Q 55.609375 10.40625 48.1875 4.484375 
Q 40.765625 -1.421875 27.09375 -1.421875 
Q 22.515625 -1.421875 17.65625 -0.515625 
Q 12.796875 0.390625 7.625 2.203125 
L 7.625 11.71875 
Q 11.71875 9.328125 16.59375 8.109375 
Q 21.484375 6.890625 26.8125 6.890625 
Q 36.078125 6.890625 40.9375 10.546875 
Q 45.796875 14.203125 45.796875 21.1875 
Q 45.796875 27.640625 41.28125 31.265625 
Q 36.765625 34.90625 28.71875 34.90625 
L 20.21875 34.90625 
L 20.21875 43.015625 
L 29.109375 43.015625 
Q 36.375 43.015625 40.234375 45.921875 
Q 44.09375 48.828125 44.09375 54.296875 
Q 44.09375 59.90625 40.109375 62.90625 
Q 36.140625 65.921875 28.71875 65.921875 
Q 24.65625 65.921875 20.015625 65.03125 
Q 15.375 64.15625 9.8125 62.3125 
L 9.8125 71.09375 
Q 15.4375 72.65625 20.34375 73.4375 
Q 25.25 74.21875 29.59375 74.21875 
Q 40.828125 74.21875 47.359375 69.109375 
Q 53.90625 64.015625 53.90625 55.328125 
Q 53.90625 49.265625 50.4375 45.09375 
Q 46.96875 40.921875 40.578125 39.3125 
z
" id="DejaVuSans-33"/>
     </defs>
     <g transform="translate(113.41 153.721113)scale(0.1 -0.1)">
      <use xlink:href="#DejaVuSans-72"/>
      <use x="41.113281" xlink:href="#DejaVuSans-5b"/>
      <use x="80.126953" xlink:href="#DejaVuSans-33"/>
      <use x="143.75" xlink:href="#DejaVuSans-5d"/>
      <use x="182.763672" xlink:href="#DejaVuSans-20"/>
      <use x="214.550781" xlink:href="#DejaVuSans-5b"/>
      <use x="253.564453" xlink:href="#DejaVuSans-6d"/>
      <use x="350.976562" xlink:href="#DejaVuSans-5d"/>
     </g>
    </g>
   </g>
  </g>
  <g id="axes_2">
   <g id="patch_8">
    <path d="M 334.814727 164.8008 
L 550.152 164.8008 
L 550.152 42.0768 
L 334.814727 42.0768 
z
" style="fill:#ffffff;"/>
   </g>
   <g id="matplotlib.axis_3">
    <g id="xtick_7">
     <g id="line2d_35">
      <path clip-path="url(#pe0b0cd4595)" d="M 344.602785 164.8008 
L 344.602785 42.0768 
" style="fill:none;stroke:#b0b0b0;stroke-linecap:square;stroke-width:0.8;"/>
     </g>
     <g id="line2d_36">
      <g>
       <use style="stroke:#000000;stroke-width:0.8;" x="344.602785" xlink:href="#m2a1c9360f7" y="164.8008"/>
      </g>
     </g>
     <g id="text_16">
      <!-- 0 -->
      <g transform="translate(341.421535 179.399237)scale(0.1 -0.1)">
       <use xlink:href="#DejaVuSans-30"/>
      </g>
     </g>
    </g>
    <g id="xtick_8">
     <g id="line2d_37">
      <path clip-path="url(#pe0b0cd4595)" d="M 383.755017 164.8008 
L 383.755017 42.0768 
" style="fill:none;stroke:#b0b0b0;stroke-linecap:square;stroke-width:0.8;"/>
     </g>
     <g id="line2d_38">
      <g>
       <use style="stroke:#000000;stroke-width:0.8;" x="383.755017" xlink:href="#m2a1c9360f7" y="164.8008"/>
      </g>
     </g>
     <g id="text_17">
      <!-- 2 -->
      <g transform="translate(380.573767 179.399237)scale(0.1 -0.1)">
       <use xlink:href="#DejaVuSans-32"/>
      </g>
     </g>
    </g>
    <g id="xtick_9">
     <g id="line2d_39">
      <path clip-path="url(#pe0b0cd4595)" d="M 422.907248 164.8008 
L 422.907248 42.0768 
" style="fill:none;stroke:#b0b0b0;stroke-linecap:square;stroke-width:0.8;"/>
     </g>
     <g id="line2d_40">
      <g>
       <use style="stroke:#000000;stroke-width:0.8;" x="422.907248" xlink:href="#m2a1c9360f7" y="164.8008"/>
      </g>
     </g>
     <g id="text_18">
      <!-- 4 -->
      <g transform="translate(419.725998 179.399237)scale(0.1 -0.1)">
       <use xlink:href="#DejaVuSans-34"/>
      </g>
     </g>
    </g>
    <g id="xtick_10">
     <g id="line2d_41">
      <path clip-path="url(#pe0b0cd4595)" d="M 462.059479 164.8008 
L 462.059479 42.0768 
" style="fill:none;stroke:#b0b0b0;stroke-linecap:square;stroke-width:0.8;"/>
     </g>
     <g id="line2d_42">
      <g>
       <use style="stroke:#000000;stroke-width:0.8;" x="462.059479" xlink:href="#m2a1c9360f7" y="164.8008"/>
      </g>
     </g>
     <g id="text_19">
      <!-- 6 -->
      <g transform="translate(458.878229 179.399237)scale(0.1 -0.1)">
       <use xlink:href="#DejaVuSans-36"/>
      </g>
     </g>
    </g>
    <g id="xtick_11">
     <g id="line2d_43">
      <path clip-path="url(#pe0b0cd4595)" d="M 501.211711 164.8008 
L 501.211711 42.0768 
" style="fill:none;stroke:#b0b0b0;stroke-linecap:square;stroke-width:0.8;"/>
     </g>
     <g id="line2d_44">
      <g>
       <use style="stroke:#000000;stroke-width:0.8;" x="501.211711" xlink:href="#m2a1c9360f7" y="164.8008"/>
      </g>
     </g>
     <g id="text_20">
      <!-- 8 -->
      <g transform="translate(498.030461 179.399237)scale(0.1 -0.1)">
       <use xlink:href="#DejaVuSans-38"/>
      </g>
     </g>
    </g>
    <g id="xtick_12">
     <g id="line2d_45">
      <path clip-path="url(#pe0b0cd4595)" d="M 540.363942 164.8008 
L 540.363942 42.0768 
" style="fill:none;stroke:#b0b0b0;stroke-linecap:square;stroke-width:0.8;"/>
     </g>
     <g id="line2d_46">
      <g>
       <use style="stroke:#000000;stroke-width:0.8;" x="540.363942" xlink:href="#m2a1c9360f7" y="164.8008"/>
      </g>
     </g>
     <g id="text_21">
      <!-- 10 -->
      <g transform="translate(534.001442 179.399237)scale(0.1 -0.1)">
       <use xlink:href="#DejaVuSans-31"/>
       <use x="63.623047" xlink:href="#DejaVuSans-30"/>
      </g>
     </g>
    </g>
   </g>
   <g id="matplotlib.axis_4">
    <g id="ytick_6">
     <g id="line2d_47">
      <path clip-path="url(#pe0b0cd4595)" d="M 334.814727 159.225384 
L 550.152 159.225384 
" style="fill:none;stroke:#b0b0b0;stroke-linecap:square;stroke-width:0.8;"/>
     </g>
     <g id="line2d_48">
      <g>
       <use style="stroke:#000000;stroke-width:0.8;" x="334.814727" xlink:href="#m554bcb1632" y="159.225384"/>
      </g>
     </g>
     <g id="text_22">
      <!-- −1.0 -->
      <g transform="translate(303.531915 163.024602)scale(0.1 -0.1)">
       <use xlink:href="#DejaVuSans-2212"/>
       <use x="83.789062" xlink:href="#DejaVuSans-31"/>
       <use x="147.412109" xlink:href="#DejaVuSans-2e"/>
       <use x="179.199219" xlink:href="#DejaVuSans-30"/>
      </g>
     </g>
    </g>
    <g id="ytick_7">
     <g id="line2d_49">
      <path clip-path="url(#pe0b0cd4595)" d="M 334.814727 131.332829 
L 550.152 131.332829 
" style="fill:none;stroke:#b0b0b0;stroke-linecap:square;stroke-width:0.8;"/>
     </g>
     <g id="line2d_50">
      <g>
       <use style="stroke:#000000;stroke-width:0.8;" x="334.814727" xlink:href="#m554bcb1632" y="131.332829"/>
      </g>
     </g>
     <g id="text_23">
      <!-- −0.5 -->
      <g transform="translate(303.531915 135.132047)scale(0.1 -0.1)">
       <use xlink:href="#DejaVuSans-2212"/>
       <use x="83.789062" xlink:href="#DejaVuSans-30"/>
       <use x="147.412109" xlink:href="#DejaVuSans-2e"/>
       <use x="179.199219" xlink:href="#DejaVuSans-35"/>
      </g>
     </g>
    </g>
    <g id="ytick_8">
     <g id="line2d_51">
      <path clip-path="url(#pe0b0cd4595)" d="M 334.814727 103.440274 
L 550.152 103.440274 
" style="fill:none;stroke:#b0b0b0;stroke-linecap:square;stroke-width:0.8;"/>
     </g>
     <g id="line2d_52">
      <g>
       <use style="stroke:#000000;stroke-width:0.8;" x="334.814727" xlink:href="#m554bcb1632" y="103.440274"/>
      </g>
     </g>
     <g id="text_24">
      <!-- 0.0 -->
      <g transform="translate(311.911602 107.239492)scale(0.1 -0.1)">
       <use xlink:href="#DejaVuSans-30"/>
       <use x="63.623047" xlink:href="#DejaVuSans-2e"/>
       <use x="95.410156" xlink:href="#DejaVuSans-30"/>
      </g>
     </g>
    </g>
    <g id="ytick_9">
     <g id="line2d_53">
      <path clip-path="url(#pe0b0cd4595)" d="M 334.814727 75.547719 
L 550.152 75.547719 
" style="fill:none;stroke:#b0b0b0;stroke-linecap:square;stroke-width:0.8;"/>
     </g>
     <g id="line2d_54">
      <g>
       <use style="stroke:#000000;stroke-width:0.8;" x="334.814727" xlink:href="#m554bcb1632" y="75.547719"/>
      </g>
     </g>
     <g id="text_25">
      <!-- 0.5 -->
      <g transform="translate(311.911602 79.346937)scale(0.1 -0.1)">
       <use xlink:href="#DejaVuSans-30"/>
       <use x="63.623047" xlink:href="#DejaVuSans-2e"/>
       <use x="95.410156" xlink:href="#DejaVuSans-35"/>
      </g>
     </g>
    </g>
    <g id="ytick_10">
     <g id="line2d_55">
      <path clip-path="url(#pe0b0cd4595)" d="M 334.814727 47.655164 
L 550.152 47.655164 
" style="fill:none;stroke:#b0b0b0;stroke-linecap:square;stroke-width:0.8;"/>
     </g>
     <g id="line2d_56">
      <g>
       <use style="stroke:#000000;stroke-width:0.8;" x="334.814727" xlink:href="#m554bcb1632" y="47.655164"/>
      </g>
     </g>
     <g id="text_26">
      <!-- 1.0 -->
      <g transform="translate(311.911602 51.454382)scale(0.1 -0.1)">
       <use xlink:href="#DejaVuSans-31"/>
       <use x="63.623047" xlink:href="#DejaVuSans-2e"/>
       <use x="95.410156" xlink:href="#DejaVuSans-30"/>
      </g>
     </g>
    </g>
   </g>
   <g id="line2d_57">
    <path clip-path="url(#pe0b0cd4595)" d="M 344.602785 103.440274 
L 346.580171 97.814991 
L 348.557556 92.247055 
L 350.534941 86.793227 
L 352.512327 81.509105 
L 354.489712 76.448557 
L 356.467098 71.663172 
L 358.444483 67.201735 
L 360.421869 63.109728 
L 362.399254 59.428864 
L 364.376639 56.196669 
L 366.354025 53.446093 
L 368.33141 51.205176 
L 370.308796 49.496763 
L 372.286181 48.338269 
L 374.263566 47.741506 
L 376.240952 47.712557 
L 378.218337 48.251716 
L 380.195723 49.353488 
L 382.173108 51.006641 
L 384.150494 53.194321 
L 386.127879 55.894227 
L 388.105264 59.078835 
L 390.08265 62.71568 
L 392.060035 66.767686 
L 394.037421 71.193547 
L 396.014806 75.948142 
L 397.992192 80.983002 
L 399.969577 86.2468 
L 401.946962 91.685874 
L 403.924348 97.244777 
L 405.901733 102.866839 
L 407.879119 108.494748 
L 409.856504 114.071128 
L 411.83389 119.539134 
L 413.811275 124.843023 
L 415.78866 129.928724 
L 417.766046 134.744391 
L 419.743431 139.240934 
L 421.720817 143.372511 
L 423.698202 147.097004 
L 425.675588 150.376444 
L 427.652973 153.1774 
L 429.630358 155.471317 
L 431.607744 157.23481 
L 433.585129 158.449902 
L 435.562515 159.104206 
L 437.5399 159.191051 
L 439.517285 158.709552 
L 441.494671 157.664618 
L 443.472056 156.066901 
L 445.449442 153.932689 
L 447.426827 151.283738 
L 449.404213 148.147053 
L 451.381598 144.554611 
L 453.358983 140.543035 
L 455.336369 136.153219 
L 457.313754 131.429915 
L 459.29114 126.421275 
L 461.268525 121.178358 
L 463.245911 115.754612 
L 465.223296 110.20533 
L 467.200681 104.587081 
L 469.178067 98.957142 
L 471.155452 93.372906 
L 473.132838 87.8913 
L 475.110223 82.568206 
L 477.087609 77.45789 
L 479.064994 72.612447 
L 481.042379 68.081275 
L 483.019765 63.910565 
L 484.99715 60.142836 
L 486.974536 56.816497 
L 488.951921 53.965458 
L 490.929307 51.618783 
L 492.906692 49.800396 
L 494.884077 48.528833 
L 496.861463 47.817058 
L 498.838848 47.672326 
L 500.816234 48.096114 
L 502.793619 49.0841 
L 504.771005 50.626213 
L 506.74839 52.706732 
L 508.725775 55.304447 
L 510.703161 58.392877 
L 512.680546 61.940536 
L 514.657932 65.911259 
L 516.635317 70.264567 
L 518.612702 74.95608 
L 520.590088 79.937971 
L 522.567473 85.159454 
L 524.544859 90.567297 
L 526.522244 96.106373 
L 528.49963 101.720213 
L 530.477015 107.351589 
L 532.4544 112.94309 
L 534.431786 118.437717 
L 536.409171 123.779454 
L 538.386557 128.913846 
L 540.363942 133.788551 
" style="fill:none;stroke:#1f77b4;stroke-linecap:square;stroke-width:1.5;"/>
   </g>
   <g id="line2d_58">
    <path clip-path="url(#pe0b0cd4595)" d="M 344.602785 103.440274 
L 346.580171 100.627632 
L 348.557556 97.843664 
L 350.534941 95.11675 
L 352.512327 92.474689 
L 354.489712 89.944415 
L 356.467098 87.551723 
L 358.444483 85.321005 
L 360.421869 83.275001 
L 362.399254 81.434569 
L 364.376639 79.818471 
L 366.354025 78.443183 
L 368.33141 77.322725 
L 370.308796 76.468518 
L 372.286181 75.889272 
L 374.263566 75.59089 
L 376.240952 75.576415 
L 378.218337 75.845995 
L 380.195723 76.396881 
L 382.173108 77.223457 
L 384.150494 78.317297 
L 386.127879 79.66725 
L 388.105264 81.259554 
L 390.08265 83.077977 
L 392.060035 85.10398 
L 394.037421 87.31691 
L 396.014806 89.694208 
L 397.992192 92.211638 
L 399.969577 94.843537 
L 401.946962 97.563074 
L 403.924348 100.342525 
L 405.901733 103.153557 
L 407.879119 105.967511 
L 409.856504 108.755701 
L 411.83389 111.489704 
L 413.811275 114.141648 
L 415.78866 116.684499 
L 417.766046 119.092333 
L 419.743431 121.340604 
L 421.720817 123.406392 
L 423.698202 125.268639 
L 425.675588 126.908359 
L 427.652973 128.308837 
L 429.630358 129.455795 
L 431.607744 130.337542 
L 433.585129 130.945088 
L 435.562515 131.27224 
L 437.5399 131.315662 
L 439.517285 131.074913 
L 441.494671 130.552446 
L 443.472056 129.753587 
L 445.449442 128.686481 
L 447.426827 127.362006 
L 449.404213 125.793664 
L 451.381598 123.997443 
L 453.358983 121.991654 
L 455.336369 119.796746 
L 457.313754 117.435095 
L 459.29114 114.930774 
L 461.268525 112.309316 
L 463.245911 109.597443 
L 465.223296 106.822802 
L 467.200681 104.013678 
L 469.178067 101.198708 
L 471.155452 98.40659 
L 473.132838 95.665787 
L 475.110223 93.00424 
L 477.087609 90.449082 
L 479.064994 88.02636 
L 481.042379 85.760774 
L 483.019765 83.67542 
L 484.99715 81.791555 
L 486.974536 80.128385 
L 488.951921 78.702866 
L 490.929307 77.529529 
L 492.906692 76.620335 
L 494.884077 75.984553 
L 496.861463 75.628666 
L 498.838848 75.5563 
L 500.816234 75.768194 
L 502.793619 76.262187 
L 504.771005 77.033243 
L 506.74839 78.073503 
L 508.725775 79.37236 
L 510.703161 80.916575 
L 512.680546 82.690405 
L 514.657932 84.675766 
L 516.635317 86.85242 
L 518.612702 89.198177 
L 520.590088 91.689122 
L 522.567473 94.299864 
L 524.544859 97.003786 
L 526.522244 99.773323 
L 528.49963 102.580244 
L 530.477015 105.395931 
L 532.4544 108.191682 
L 534.431786 110.938995 
L 536.409171 113.609864 
L 538.386557 116.17706 
L 540.363942 118.614412 
" style="fill:none;stroke:#ff7f0e;stroke-linecap:square;stroke-width:1.5;"/>
   </g>
   <g id="line2d_59">
    <path clip-path="url(#pe0b0cd4595)" d="M 344.602785 47.655164 
L 346.580171 47.939511 
L 348.557556 48.789653 
L 350.534941 50.196924 
L 352.512327 52.146977 
L 354.489712 54.619932 
L 356.467098 57.590581 
L 358.444483 61.028638 
L 360.421869 64.899055 
L 362.399254 69.162375 
L 364.376639 73.775137 
L 366.354025 78.690316 
L 368.33141 83.857805 
L 370.308796 89.224925 
L 372.286181 94.736962 
L 374.263566 100.337723 
L 376.240952 105.970113 
L 378.218337 111.576713 
L 380.195723 117.100367 
L 382.173108 122.484765 
L 384.150494 127.675017 
L 386.127879 132.61821 
L 388.105264 137.263953 
L 390.08265 141.564885 
L 392.060035 145.47716 
L 394.037421 148.960896 
L 396.014806 151.980578 
L 397.992192 154.505423 
L 399.969577 156.50969 
L 401.946962 157.972948 
L 403.924348 158.88028 
L 405.901733 159.222436 
L 407.879119 158.995929 
L 409.856504 158.203066 
L 411.83389 156.851931 
L 413.811275 154.956299 
L 415.78866 152.535493 
L 417.766046 149.614192 
L 419.743431 146.222177 
L 421.720817 142.394028 
L 423.698202 138.16877 
L 425.675588 133.589476 
L 427.652973 128.702831 
L 429.630358 123.55865 
L 431.607744 118.209375 
L 433.585129 112.709538 
L 435.562515 107.115207 
L 437.5399 101.483412 
L 439.517285 95.871566 
L 441.494671 90.336878 
L 443.472056 84.935772 
L 445.449442 79.723306 
L 447.426827 74.752621 
L 449.404213 70.074388 
L 451.381598 65.736299 
L 453.358983 61.782578 
L 455.336369 58.253531 
L 457.313754 55.185134 
L 459.29114 52.608669 
L 461.268525 50.550399 
L 463.245911 49.031308 
L 465.223296 48.066882 
L 467.200681 47.666953 
L 469.178067 47.835597 
L 471.155452 48.571096 
L 473.132838 49.865952 
L 475.110223 51.706964 
L 477.087609 54.075365 
L 479.064994 56.947009 
L 481.042379 60.292623 
L 483.019765 64.078101 
L 484.99715 68.26485 
L 486.974536 72.810191 
L 488.951921 77.667786 
L 490.929307 82.788115 
L 492.906692 88.11898 
L 494.884077 93.606036 
L 496.861463 99.193346 
L 498.838848 104.823951 
L 500.816234 110.44045 
L 502.793619 115.985586 
L 504.771005 121.402831 
L 506.74839 126.636959 
L 508.725775 131.634612 
L 510.703161 136.344841 
L 512.680546 140.719628 
L 514.657932 144.714377 
L 516.635317 148.288361 
L 518.612702 151.405148 
L 520.590088 154.032964 
L 522.567473 156.145018 
L 524.544859 157.719782 
L 526.522244 158.7412 
L 528.49963 159.19886 
L 530.477015 159.088096 
L 532.4544 158.410038 
L 534.431786 157.171598 
L 536.409171 155.385401 
L 538.386557 153.069656 
L 540.363942 150.247971 
" style="fill:none;stroke:#2ca02c;stroke-linecap:square;stroke-width:1.5;"/>
   </g>
   <g id="patch_9">
    <path d="M 334.814727 164.8008 
L 334.814727 42.0768 
" style="fill:none;stroke:#000000;stroke-linecap:square;stroke-linejoin:miter;stroke-width:0.8;"/>
   </g>
   <g id="patch_10">
    <path d="M 550.152 164.8008 
L 550.152 42.0768 
" style="fill:none;stroke:#000000;stroke-linecap:square;stroke-linejoin:miter;stroke-width:0.8;"/>
   </g>
   <g id="patch_11">
    <path d="M 334.814727 164.8008 
L 550.152 164.8008 
" style="fill:none;stroke:#000000;stroke-linecap:square;stroke-linejoin:miter;stroke-width:0.8;"/>
   </g>
   <g id="patch_12">
    <path d="M 334.814727 42.0768 
L 550.152 42.0768 
" style="fill:none;stroke:#000000;stroke-linecap:square;stroke-linejoin:miter;stroke-width:0.8;"/>
   </g>
   <g id="legend_2">
    <g id="patch_13">
     <path d="M 461.756687 159.8008 
L 543.152 159.8008 
Q 545.152 159.8008 545.152 157.8008 
L 545.152 114.766425 
Q 545.152 112.766425 543.152 112.766425 
L 461.756687 112.766425 
Q 459.756687 112.766425 459.756687 114.766425 
L 459.756687 157.8008 
Q 459.756687 159.8008 461.756687 159.8008 
z
" style="fill:#ffffff;opacity:0.8;stroke:#cccccc;stroke-linejoin:miter;"/>
    </g>
    <g id="line2d_60">
     <path d="M 463.756687 120.864862 
L 483.756687 120.864862 
" style="fill:none;stroke:#1f77b4;stroke-linecap:square;stroke-width:1.5;"/>
    </g>
    <g id="line2d_61"/>
    <g id="text_27">
     <!-- phi [rad] -->
     <g transform="translate(491.756687 124.364862)scale(0.1 -0.1)">
      <use xlink:href="#DejaVuSans-70"/>
      <use x="63.476562" xlink:href="#DejaVuSans-68"/>
      <use x="126.855469" xlink:href="#DejaVuSans-69"/>
      <use x="154.638672" xlink:href="#DejaVuSans-20"/>
      <use x="186.425781" xlink:href="#DejaVuSans-5b"/>
      <use x="225.439453" xlink:href="#DejaVuSans-72"/>
      <use x="266.552734" xlink:href="#DejaVuSans-61"/>
      <use x="327.832031" xlink:href="#DejaVuSans-64"/>
      <use x="391.308594" xlink:href="#DejaVuSans-5d"/>
     </g>
    </g>
    <g id="line2d_62">
     <path d="M 463.756687 135.542987 
L 483.756687 135.542987 
" style="fill:none;stroke:#ff7f0e;stroke-linecap:square;stroke-width:1.5;"/>
    </g>
    <g id="line2d_63"/>
    <g id="text_28">
     <!-- phi2 [rad] -->
     <g transform="translate(491.756687 139.042987)scale(0.1 -0.1)">
      <use xlink:href="#DejaVuSans-70"/>
      <use x="63.476562" xlink:href="#DejaVuSans-68"/>
      <use x="126.855469" xlink:href="#DejaVuSans-69"/>
      <use x="154.638672" xlink:href="#DejaVuSans-32"/>
      <use x="218.261719" xlink:href="#DejaVuSans-20"/>
      <use x="250.048828" xlink:href="#DejaVuSans-5b"/>
      <use x="289.0625" xlink:href="#DejaVuSans-72"/>
      <use x="330.175781" xlink:href="#DejaVuSans-61"/>
      <use x="391.455078" xlink:href="#DejaVuSans-64"/>
      <use x="454.931641" xlink:href="#DejaVuSans-5d"/>
     </g>
    </g>
    <g id="line2d_64">
     <path d="M 463.756687 150.221113 
L 483.756687 150.221113 
" style="fill:none;stroke:#2ca02c;stroke-linecap:square;stroke-width:1.5;"/>
    </g>
    <g id="line2d_65"/>
    <g id="text_29">
     <!-- w [rad/s] -->
     <defs>
      <path d="M 4.203125 54.6875 
L 13.1875 54.6875 
L 24.421875 12.015625 
L 35.59375 54.6875 
L 46.1875 54.6875 
L 57.421875 12.015625 
L 68.609375 54.6875 
L 77.59375 54.6875 
L 63.28125 0 
L 52.6875 0 
L 40.921875 44.828125 
L 29.109375 0 
L 18.5 0 
z
" id="DejaVuSans-77"/>
      <path d="M 25.390625 72.90625 
L 33.6875 72.90625 
L 8.296875 -9.28125 
L 0 -9.28125 
z
" id="DejaVuSans-2f"/>
      <path d="M 44.28125 53.078125 
L 44.28125 44.578125 
Q 40.484375 46.53125 36.375 47.5 
Q 32.28125 48.484375 27.875 48.484375 
Q 21.1875 48.484375 17.84375 46.4375 
Q 14.5 44.390625 14.5 40.28125 
Q 14.5 37.15625 16.890625 35.375 
Q 19.28125 33.59375 26.515625 31.984375 
L 29.59375 31.296875 
Q 39.15625 29.25 43.1875 25.515625 
Q 47.21875 21.78125 47.21875 15.09375 
Q 47.21875 7.46875 41.1875 3.015625 
Q 35.15625 -1.421875 24.609375 -1.421875 
Q 20.21875 -1.421875 15.453125 -0.5625 
Q 10.6875 0.296875 5.421875 2 
L 5.421875 11.28125 
Q 10.40625 8.6875 15.234375 7.390625 
Q 20.0625 6.109375 24.8125 6.109375 
Q 31.15625 6.109375 34.5625 8.28125 
Q 37.984375 10.453125 37.984375 14.40625 
Q 37.984375 18.0625 35.515625 20.015625 
Q 33.0625 21.96875 24.703125 23.78125 
L 21.578125 24.515625 
Q 13.234375 26.265625 9.515625 29.90625 
Q 5.8125 33.546875 5.8125 39.890625 
Q 5.8125 47.609375 11.28125 51.796875 
Q 16.75 56 26.8125 56 
Q 31.78125 56 36.171875 55.265625 
Q 40.578125 54.546875 44.28125 53.078125 
z
" id="DejaVuSans-73"/>
     </defs>
     <g transform="translate(491.756687 153.721113)scale(0.1 -0.1)">
      <use xlink:href="#DejaVuSans-77"/>
      <use x="81.787109" xlink:href="#DejaVuSans-20"/>
      <use x="113.574219" xlink:href="#DejaVuSans-5b"/>
      <use x="152.587891" xlink:href="#DejaVuSans-72"/>
      <use x="193.701172" xlink:href="#DejaVuSans-61"/>
      <use x="254.980469" xlink:href="#DejaVuSans-64"/>
      <use x="318.457031" xlink:href="#DejaVuSans-2f"/>
      <use x="352.148438" xlink:href="#DejaVuSans-73"/>
      <use x="404.248047" xlink:href="#DejaVuSans-5d"/>
     </g>
    </g>
   </g>
  </g>
  <g id="axes_3">
   <g id="patch_14">
    <path d="M 76.41 312.0696 
L 291.747273 312.0696 
L 291.747273 189.3456 
L 76.41 189.3456 
z
" style="fill:#ffffff;"/>
   </g>
   <g id="matplotlib.axis_5">
    <g id="xtick_13">
     <g id="line2d_66">
      <path clip-path="url(#p5f30e423fb)" d="M 86.198058 312.0696 
L 86.198058 189.3456 
" style="fill:none;stroke:#b0b0b0;stroke-linecap:square;stroke-width:0.8;"/>
     </g>
     <g id="line2d_67">
      <g>
       <use style="stroke:#000000;stroke-width:0.8;" x="86.198058" xlink:href="#m2a1c9360f7" y="312.0696"/>
      </g>
     </g>
     <g id="text_30">
      <!-- 0 -->
      <g transform="translate(83.016808 326.668037)scale(0.1 -0.1)">
       <use xlink:href="#DejaVuSans-30"/>
      </g>
     </g>
    </g>
    <g id="xtick_14">
     <g id="line2d_68">
      <path clip-path="url(#p5f30e423fb)" d="M 125.350289 312.0696 
L 125.350289 189.3456 
" style="fill:none;stroke:#b0b0b0;stroke-linecap:square;stroke-width:0.8;"/>
     </g>
     <g id="line2d_69">
      <g>
       <use style="stroke:#000000;stroke-width:0.8;" x="125.350289" xlink:href="#m2a1c9360f7" y="312.0696"/>
      </g>
     </g>
     <g id="text_31">
      <!-- 2 -->
      <g transform="translate(122.169039 326.668037)scale(0.1 -0.1)">
       <use xlink:href="#DejaVuSans-32"/>
      </g>
     </g>
    </g>
    <g id="xtick_15">
     <g id="line2d_70">
      <path clip-path="url(#p5f30e423fb)" d="M 164.502521 312.0696 
L 164.502521 189.3456 
" style="fill:none;stroke:#b0b0b0;stroke-linecap:square;stroke-width:0.8;"/>
     </g>
     <g id="line2d_71">
      <g>
       <use style="stroke:#000000;stroke-width:0.8;" x="164.502521" xlink:href="#m2a1c9360f7" y="312.0696"/>
      </g>
     </g>
     <g id="text_32">
      <!-- 4 -->
      <g transform="translate(161.321271 326.668037)scale(0.1 -0.1)">
       <use xlink:href="#DejaVuSans-34"/>
      </g>
     </g>
    </g>
    <g id="xtick_16">
     <g id="line2d_72">
      <path clip-path="url(#p5f30e423fb)" d="M 203.654752 312.0696 
L 203.654752 189.3456 
" style="fill:none;stroke:#b0b0b0;stroke-linecap:square;stroke-width:0.8;"/>
     </g>
     <g id="line2d_73">
      <g>
       <use style="stroke:#000000;stroke-width:0.8;" x="203.654752" xlink:href="#m2a1c9360f7" y="312.0696"/>
      </g>
     </g>
     <g id="text_33">
      <!-- 6 -->
      <g transform="translate(200.473502 326.668037)scale(0.1 -0.1)">
       <use xlink:href="#DejaVuSans-36"/>
      </g>
     </g>
    </g>
    <g id="xtick_17">
     <g id="line2d_74">
      <path clip-path="url(#p5f30e423fb)" d="M 242.806983 312.0696 
L 242.806983 189.3456 
" style="fill:none;stroke:#b0b0b0;stroke-linecap:square;stroke-width:0.8;"/>
     </g>
     <g id="line2d_75">
      <g>
       <use style="stroke:#000000;stroke-width:0.8;" x="242.806983" xlink:href="#m2a1c9360f7" y="312.0696"/>
      </g>
     </g>
     <g id="text_34">
      <!-- 8 -->
      <g transform="translate(239.625733 326.668037)scale(0.1 -0.1)">
       <use xlink:href="#DejaVuSans-38"/>
      </g>
     </g>
    </g>
    <g id="xtick_18">
     <g id="line2d_76">
      <path clip-path="url(#p5f30e423fb)" d="M 281.959215 312.0696 
L 281.959215 189.3456 
" style="fill:none;stroke:#b0b0b0;stroke-linecap:square;stroke-width:0.8;"/>
     </g>
     <g id="line2d_77">
      <g>
       <use style="stroke:#000000;stroke-width:0.8;" x="281.959215" xlink:href="#m2a1c9360f7" y="312.0696"/>
      </g>
     </g>
     <g id="text_35">
      <!-- 10 -->
      <g transform="translate(275.596715 326.668037)scale(0.1 -0.1)">
       <use xlink:href="#DejaVuSans-31"/>
       <use x="63.623047" xlink:href="#DejaVuSans-30"/>
      </g>
     </g>
    </g>
    <g id="text_36">
     <!-- time [s] -->
     <defs>
      <path d="M 18.3125 70.21875 
L 18.3125 54.6875 
L 36.8125 54.6875 
L 36.8125 47.703125 
L 18.3125 47.703125 
L 18.3125 18.015625 
Q 18.3125 11.328125 20.140625 9.421875 
Q 21.96875 7.515625 27.59375 7.515625 
L 36.8125 7.515625 
L 36.8125 0 
L 27.59375 0 
Q 17.1875 0 13.234375 3.875 
Q 9.28125 7.765625 9.28125 18.015625 
L 9.28125 47.703125 
L 2.6875 47.703125 
L 2.6875 54.6875 
L 9.28125 54.6875 
L 9.28125 70.21875 
z
" id="DejaVuSans-74"/>
      <path d="M 56.203125 29.59375 
L 56.203125 25.203125 
L 14.890625 25.203125 
Q 15.484375 15.921875 20.484375 11.0625 
Q 25.484375 6.203125 34.421875 6.203125 
Q 39.59375 6.203125 44.453125 7.46875 
Q 49.3125 8.734375 54.109375 11.28125 
L 54.109375 2.78125 
Q 49.265625 0.734375 44.1875 -0.34375 
Q 39.109375 -1.421875 33.890625 -1.421875 
Q 20.796875 -1.421875 13.15625 6.1875 
Q 5.515625 13.8125 5.515625 26.8125 
Q 5.515625 40.234375 12.765625 48.109375 
Q 20.015625 56 32.328125 56 
Q 43.359375 56 49.78125 48.890625 
Q 56.203125 41.796875 56.203125 29.59375 
z
M 47.21875 32.234375 
Q 47.125 39.59375 43.09375 43.984375 
Q 39.0625 48.390625 32.421875 48.390625 
Q 24.90625 48.390625 20.390625 44.140625 
Q 15.875 39.890625 15.1875 32.171875 
z
" id="DejaVuSans-65"/>
     </defs>
     <g transform="translate(164.68723 340.346162)scale(0.1 -0.1)">
      <use xlink:href="#DejaVuSans-74"/>
      <use x="39.208984" xlink:href="#DejaVuSans-69"/>
      <use x="66.992188" xlink:href="#DejaVuSans-6d"/>
      <use x="164.404297" xlink:href="#DejaVuSans-65"/>
      <use x="225.927734" xlink:href="#DejaVuSans-20"/>
      <use x="257.714844" xlink:href="#DejaVuSans-5b"/>
      <use x="296.728516" xlink:href="#DejaVuSans-73"/>
      <use x="348.828125" xlink:href="#DejaVuSans-5d"/>
     </g>
    </g>
   </g>
   <g id="matplotlib.axis_6">
    <g id="ytick_11">
     <g id="line2d_78">
      <path clip-path="url(#p5f30e423fb)" d="M 76.41 306.494184 
L 291.747273 306.494184 
" style="fill:none;stroke:#b0b0b0;stroke-linecap:square;stroke-width:0.8;"/>
     </g>
     <g id="line2d_79">
      <g>
       <use style="stroke:#000000;stroke-width:0.8;" x="76.41" xlink:href="#m554bcb1632" y="306.494184"/>
      </g>
     </g>
     <g id="text_37">
      <!-- −1.0 -->
      <g transform="translate(45.127187 310.293402)scale(0.1 -0.1)">
       <use xlink:href="#DejaVuSans-2212"/>
       <use x="83.789062" xlink:href="#DejaVuSans-31"/>
       <use x="147.412109" xlink:href="#DejaVuSans-2e"/>
       <use x="179.199219" xlink:href="#DejaVuSans-30"/>
      </g>
     </g>
    </g>
    <g id="ytick_12">
     <g id="line2d_80">
      <path clip-path="url(#p5f30e423fb)" d="M 76.41 278.601629 
L 291.747273 278.601629 
" style="fill:none;stroke:#b0b0b0;stroke-linecap:square;stroke-width:0.8;"/>
     </g>
     <g id="line2d_81">
      <g>
       <use style="stroke:#000000;stroke-width:0.8;" x="76.41" xlink:href="#m554bcb1632" y="278.601629"/>
      </g>
     </g>
     <g id="text_38">
      <!-- −0.5 -->
      <g transform="translate(45.127187 282.400847)scale(0.1 -0.1)">
       <use xlink:href="#DejaVuSans-2212"/>
       <use x="83.789062" xlink:href="#DejaVuSans-30"/>
       <use x="147.412109" xlink:href="#DejaVuSans-2e"/>
       <use x="179.199219" xlink:href="#DejaVuSans-35"/>
      </g>
     </g>
    </g>
    <g id="ytick_13">
     <g id="line2d_82">
      <path clip-path="url(#p5f30e423fb)" d="M 76.41 250.709074 
L 291.747273 250.709074 
" style="fill:none;stroke:#b0b0b0;stroke-linecap:square;stroke-width:0.8;"/>
     </g>
     <g id="line2d_83">
      <g>
       <use style="stroke:#000000;stroke-width:0.8;" x="76.41" xlink:href="#m554bcb1632" y="250.709074"/>
      </g>
     </g>
     <g id="text_39">
      <!-- 0.0 -->
      <g transform="translate(53.506875 254.508292)scale(0.1 -0.1)">
       <use xlink:href="#DejaVuSans-30"/>
       <use x="63.623047" xlink:href="#DejaVuSans-2e"/>
       <use x="95.410156" xlink:href="#DejaVuSans-30"/>
      </g>
     </g>
    </g>
    <g id="ytick_14">
     <g id="line2d_84">
      <path clip-path="url(#p5f30e423fb)" d="M 76.41 222.816519 
L 291.747273 222.816519 
" style="fill:none;stroke:#b0b0b0;stroke-linecap:square;stroke-width:0.8;"/>
     </g>
     <g id="line2d_85">
      <g>
       <use style="stroke:#000000;stroke-width:0.8;" x="76.41" xlink:href="#m554bcb1632" y="222.816519"/>
      </g>
     </g>
     <g id="text_40">
      <!-- 0.5 -->
      <g transform="translate(53.506875 226.615737)scale(0.1 -0.1)">
       <use xlink:href="#DejaVuSans-30"/>
       <use x="63.623047" xlink:href="#DejaVuSans-2e"/>
       <use x="95.410156" xlink:href="#DejaVuSans-35"/>
      </g>
     </g>
    </g>
    <g id="ytick_15">
     <g id="line2d_86">
      <path clip-path="url(#p5f30e423fb)" d="M 76.41 194.923964 
L 291.747273 194.923964 
" style="fill:none;stroke:#b0b0b0;stroke-linecap:square;stroke-width:0.8;"/>
     </g>
     <g id="line2d_87">
      <g>
       <use style="stroke:#000000;stroke-width:0.8;" x="76.41" xlink:href="#m554bcb1632" y="194.923964"/>
      </g>
     </g>
     <g id="text_41">
      <!-- 1.0 -->
      <g transform="translate(53.506875 198.723182)scale(0.1 -0.1)">
       <use xlink:href="#DejaVuSans-31"/>
       <use x="63.623047" xlink:href="#DejaVuSans-2e"/>
       <use x="95.410156" xlink:href="#DejaVuSans-30"/>
      </g>
     </g>
    </g>
   </g>
   <g id="line2d_88">
    <path clip-path="url(#p5f30e423fb)" d="M 86.198058 194.923964 
L 88.175443 195.208311 
L 90.152829 196.058453 
L 92.130214 197.465724 
L 94.1076 199.415777 
L 96.084985 201.888732 
L 98.06237 204.859381 
L 100.039756 208.297438 
L 102.017141 212.167855 
L 103.994527 216.431175 
L 105.971912 221.043937 
L 107.949298 225.959116 
L 109.926683 231.126605 
L 111.904068 236.493725 
L 113.881454 242.005762 
L 115.858839 247.606523 
L 117.836225 253.238913 
L 119.81361 258.845513 
L 121.790995 264.369167 
L 123.768381 269.753565 
L 125.745766 274.943817 
L 127.723152 279.88701 
L 129.700537 284.532753 
L 131.677923 288.833685 
L 133.655308 292.74596 
L 135.632693 296.229696 
L 137.610079 299.249378 
L 139.587464 301.774223 
L 141.56485 303.77849 
L 143.542235 305.241748 
L 145.519621 306.14908 
L 147.497006 306.491236 
L 149.474391 306.264729 
L 151.451777 305.471866 
L 153.429162 304.120731 
L 155.406548 302.225099 
L 157.383933 299.804293 
L 159.361319 296.882992 
L 161.338704 293.490977 
L 163.316089 289.662828 
L 165.293475 285.43757 
L 167.27086 280.858276 
L 169.248246 275.971631 
L 171.225631 270.82745 
L 173.203017 265.478175 
L 175.180402 259.978338 
L 177.157787 254.384007 
L 179.135173 248.752212 
L 181.112558 243.140366 
L 183.089944 237.605678 
L 185.067329 232.204572 
L 187.044715 226.992106 
L 189.0221 222.021421 
L 190.999485 217.343188 
L 192.976871 213.005099 
L 194.954256 209.051378 
L 196.931642 205.522331 
L 198.909027 202.453934 
L 200.886412 199.877469 
L 202.863798 197.819199 
L 204.841183 196.300108 
L 206.818569 195.335682 
L 208.795954 194.935753 
L 210.77334 195.104397 
L 212.750725 195.839896 
L 214.72811 197.134752 
L 216.705496 198.975764 
L 218.682881 201.344165 
L 220.660267 204.215809 
L 222.637652 207.561423 
L 224.615038 211.346901 
L 226.592423 215.53365 
L 228.569808 220.078991 
L 230.547194 224.936586 
L 232.524579 230.056915 
L 234.501965 235.38778 
L 236.47935 240.874836 
L 238.456736 246.462146 
L 240.434121 252.092751 
L 242.411506 257.70925 
L 244.388892 263.254386 
L 246.366277 268.671631 
L 248.343663 273.905759 
L 250.321048 278.903412 
L 252.298434 283.613641 
L 254.275819 287.988428 
L 256.253204 291.983177 
L 258.23059 295.557161 
L 260.207975 298.673948 
L 262.185361 301.301764 
L 264.162746 303.413818 
L 266.140131 304.988582 
L 268.117517 306.01 
L 270.094902 306.46766 
L 272.072288 306.356896 
L 274.049673 305.678838 
L 276.027059 304.440398 
L 278.004444 302.654201 
L 279.981829 300.338456 
L 281.959215 297.516771 
" style="fill:none;stroke:#1f77b4;stroke-linecap:square;stroke-width:1.5;"/>
   </g>
   <g id="line2d_89">
    <path clip-path="url(#p5f30e423fb)" d="M 86.198058 217.238008 
L 88.175443 217.408616 
L 90.152829 217.918701 
L 92.130214 218.763064 
L 94.1076 219.933095 
L 96.084985 221.416869 
L 98.06237 223.199258 
L 100.039756 225.262092 
L 102.017141 227.584342 
L 103.994527 230.142334 
L 105.971912 232.909992 
L 107.949298 235.859099 
L 109.926683 238.959593 
L 111.904068 242.179865 
L 113.881454 245.487087 
L 115.858839 248.847544 
L 117.836225 252.226977 
L 119.81361 255.590937 
L 121.790995 258.90513 
L 123.768381 262.135769 
L 125.745766 265.249919 
L 127.723152 268.215836 
L 129.700537 271.003281 
L 131.677923 273.58384 
L 133.655308 275.931206 
L 135.632693 278.021447 
L 137.610079 279.833257 
L 139.587464 281.348163 
L 141.56485 282.550723 
L 143.542235 283.428678 
L 145.519621 283.973078 
L 147.497006 284.178371 
L 149.474391 284.042467 
L 151.451777 283.566749 
L 153.429162 282.756068 
L 155.406548 281.618689 
L 157.383933 280.166205 
L 159.361319 278.413425 
L 161.338704 276.378216 
L 163.316089 274.081326 
L 165.293475 271.546171 
L 167.27086 268.798595 
L 169.248246 265.866608 
L 171.225631 262.780099 
L 173.203017 259.570534 
L 175.180402 256.270632 
L 177.157787 252.914033 
L 179.135173 249.534957 
L 181.112558 246.167849 
L 183.089944 242.847036 
L 185.067329 239.606372 
L 187.044715 236.478893 
L 189.0221 233.496482 
L 190.999485 230.689542 
L 192.976871 228.086689 
L 194.954256 225.714456 
L 196.931642 223.597028 
L 198.909027 221.75599 
L 200.886412 220.210111 
L 202.863798 218.975149 
L 204.841183 218.063694 
L 206.818569 217.485039 
L 208.795954 217.245081 
L 210.77334 217.346268 
L 212.750725 217.787567 
L 214.72811 218.564481 
L 216.705496 219.669088 
L 218.682881 221.090128 
L 220.660267 222.813115 
L 222.637652 224.820484 
L 224.615038 227.09177 
L 226.592423 229.60382 
L 228.569808 232.331024 
L 230.547194 235.245581 
L 232.524579 238.317779 
L 234.501965 241.516298 
L 236.47935 244.808531 
L 238.456736 248.160917 
L 240.434121 251.53928 
L 242.411506 254.909179 
L 244.388892 258.236261 
L 246.366277 261.486608 
L 248.343663 264.627085 
L 250.321048 267.625676 
L 252.298434 270.451814 
L 254.275819 273.076686 
L 256.253204 275.473535 
L 258.23059 277.617926 
L 260.207975 279.487998 
L 262.185361 281.064688 
L 264.162746 282.331921 
L 266.140131 283.276778 
L 268.117517 283.889629 
L 270.094902 284.164225 
L 272.072288 284.097767 
L 274.049673 283.690932 
L 276.027059 282.947868 
L 278.004444 281.87615 
L 279.981829 280.486703 
L 281.959215 278.793692 
" style="fill:none;stroke:#ff7f0e;stroke-linecap:square;stroke-width:1.5;"/>
   </g>
   <g id="line2d_90">
    <path clip-path="url(#p5f30e423fb)" d="M 86.198058 250.709074 
L 88.175443 247.896432 
L 90.152829 245.112464 
L 92.130214 242.38555 
L 94.1076 239.743489 
L 96.084985 237.213215 
L 98.06237 234.820523 
L 100.039756 232.589805 
L 102.017141 230.543801 
L 103.994527 228.703369 
L 105.971912 227.087271 
L 107.949298 225.711983 
L 109.926683 224.591525 
L 111.904068 223.737318 
L 113.881454 223.158072 
L 115.858839 222.85969 
L 117.836225 222.845215 
L 119.81361 223.114795 
L 121.790995 223.665681 
L 123.768381 224.492257 
L 125.745766 225.586097 
L 127.723152 226.93605 
L 129.700537 228.528354 
L 131.677923 230.346777 
L 133.655308 232.37278 
L 135.632693 234.58571 
L 137.610079 236.963008 
L 139.587464 239.480438 
L 141.56485 242.112337 
L 143.542235 244.831874 
L 145.519621 247.611325 
L 147.497006 250.422357 
L 149.474391 253.236311 
L 151.451777 256.024501 
L 153.429162 258.758504 
L 155.406548 261.410448 
L 157.383933 263.953299 
L 159.361319 266.361133 
L 161.338704 268.609404 
L 163.316089 270.675192 
L 165.293475 272.537439 
L 167.27086 274.177159 
L 169.248246 275.577637 
L 171.225631 276.724595 
L 173.203017 277.606342 
L 175.180402 278.213888 
L 177.157787 278.54104 
L 179.135173 278.584462 
L 181.112558 278.343713 
L 183.089944 277.821246 
L 185.067329 277.022387 
L 187.044715 275.955281 
L 189.0221 274.630806 
L 190.999485 273.062464 
L 192.976871 271.266243 
L 194.954256 269.260454 
L 196.931642 267.065546 
L 198.909027 264.703895 
L 200.886412 262.199574 
L 202.863798 259.578116 
L 204.841183 256.866243 
L 206.818569 254.091602 
L 208.795954 251.282478 
L 210.77334 248.467508 
L 212.750725 245.67539 
L 214.72811 242.934587 
L 216.705496 240.27304 
L 218.682881 237.717882 
L 220.660267 235.29516 
L 222.637652 233.029574 
L 224.615038 230.94422 
L 226.592423 229.060355 
L 228.569808 227.397185 
L 230.547194 225.971666 
L 232.524579 224.798329 
L 234.501965 223.889135 
L 236.47935 223.253353 
L 238.456736 222.897466 
L 240.434121 222.8251 
L 242.411506 223.036994 
L 244.388892 223.530987 
L 246.366277 224.302043 
L 248.343663 225.342303 
L 250.321048 226.64116 
L 252.298434 228.185375 
L 254.275819 229.959205 
L 256.253204 231.944566 
L 258.23059 234.12122 
L 260.207975 236.466977 
L 262.185361 238.957922 
L 264.162746 241.568664 
L 266.140131 244.272586 
L 268.117517 247.042123 
L 270.094902 249.849044 
L 272.072288 252.664731 
L 274.049673 255.460482 
L 276.027059 258.207795 
L 278.004444 260.878664 
L 279.981829 263.44586 
L 281.959215 265.883212 
" style="fill:none;stroke:#2ca02c;stroke-linecap:square;stroke-width:1.5;"/>
   </g>
   <g id="patch_15">
    <path d="M 76.41 312.0696 
L 76.41 189.3456 
" style="fill:none;stroke:#000000;stroke-linecap:square;stroke-linejoin:miter;stroke-width:0.8;"/>
   </g>
   <g id="patch_16">
    <path d="M 291.747273 312.0696 
L 291.747273 189.3456 
" style="fill:none;stroke:#000000;stroke-linecap:square;stroke-linejoin:miter;stroke-width:0.8;"/>
   </g>
   <g id="patch_17">
    <path d="M 76.41 312.0696 
L 291.747273 312.0696 
" style="fill:none;stroke:#000000;stroke-linecap:square;stroke-linejoin:miter;stroke-width:0.8;"/>
   </g>
   <g id="patch_18">
    <path d="M 76.41 189.3456 
L 291.747273 189.3456 
" style="fill:none;stroke:#000000;stroke-linecap:square;stroke-linejoin:miter;stroke-width:0.8;"/>
   </g>
   <g id="legend_3">
    <g id="patch_19">
     <path d="M 202.059773 307.0696 
L 284.747273 307.0696 
Q 286.747273 307.0696 286.747273 305.0696 
L 286.747273 262.035225 
Q 286.747273 260.035225 284.747273 260.035225 
L 202.059773 260.035225 
Q 200.059773 260.035225 200.059773 262.035225 
L 200.059773 305.0696 
Q 200.059773 307.0696 202.059773 307.0696 
z
" style="fill:#ffffff;opacity:0.8;stroke:#cccccc;stroke-linejoin:miter;"/>
    </g>
    <g id="line2d_91">
     <path d="M 204.059773 268.133663 
L 224.059773 268.133663 
" style="fill:none;stroke:#1f77b4;stroke-linecap:square;stroke-width:1.5;"/>
    </g>
    <g id="line2d_92"/>
    <g id="text_42">
     <!-- w [rad/s] -->
     <g transform="translate(232.059773 271.633663)scale(0.1 -0.1)">
      <use xlink:href="#DejaVuSans-77"/>
      <use x="81.787109" xlink:href="#DejaVuSans-20"/>
      <use x="113.574219" xlink:href="#DejaVuSans-5b"/>
      <use x="152.587891" xlink:href="#DejaVuSans-72"/>
      <use x="193.701172" xlink:href="#DejaVuSans-61"/>
      <use x="254.980469" xlink:href="#DejaVuSans-64"/>
      <use x="318.457031" xlink:href="#DejaVuSans-2f"/>
      <use x="352.148438" xlink:href="#DejaVuSans-73"/>
      <use x="404.248047" xlink:href="#DejaVuSans-5d"/>
     </g>
    </g>
    <g id="line2d_93">
     <path d="M 204.059773 282.811787 
L 224.059773 282.811787 
" style="fill:none;stroke:#ff7f0e;stroke-linecap:square;stroke-width:1.5;"/>
    </g>
    <g id="line2d_94"/>
    <g id="text_43">
     <!-- w2 [rad/s] -->
     <g transform="translate(232.059773 286.311787)scale(0.1 -0.1)">
      <use xlink:href="#DejaVuSans-77"/>
      <use x="81.787109" xlink:href="#DejaVuSans-32"/>
      <use x="145.410156" xlink:href="#DejaVuSans-20"/>
      <use x="177.197266" xlink:href="#DejaVuSans-5b"/>
      <use x="216.210938" xlink:href="#DejaVuSans-72"/>
      <use x="257.324219" xlink:href="#DejaVuSans-61"/>
      <use x="318.603516" xlink:href="#DejaVuSans-64"/>
      <use x="382.080078" xlink:href="#DejaVuSans-2f"/>
      <use x="415.771484" xlink:href="#DejaVuSans-73"/>
      <use x="467.871094" xlink:href="#DejaVuSans-5d"/>
     </g>
    </g>
    <g id="line2d_95">
     <path d="M 204.059773 297.489913 
L 224.059773 297.489913 
" style="fill:none;stroke:#2ca02c;stroke-linecap:square;stroke-width:1.5;"/>
    </g>
    <g id="line2d_96"/>
    <g id="text_44">
     <!-- phi2 [rad] -->
     <g transform="translate(232.059773 300.989913)scale(0.1 -0.1)">
      <use xlink:href="#DejaVuSans-70"/>
      <use x="63.476562" xlink:href="#DejaVuSans-68"/>
      <use x="126.855469" xlink:href="#DejaVuSans-69"/>
      <use x="154.638672" xlink:href="#DejaVuSans-32"/>
      <use x="218.261719" xlink:href="#DejaVuSans-20"/>
      <use x="250.048828" xlink:href="#DejaVuSans-5b"/>
      <use x="289.0625" xlink:href="#DejaVuSans-72"/>
      <use x="330.175781" xlink:href="#DejaVuSans-61"/>
      <use x="391.455078" xlink:href="#DejaVuSans-64"/>
      <use x="454.931641" xlink:href="#DejaVuSans-5d"/>
     </g>
    </g>
   </g>
  </g>
  <g id="axes_4">
   <g id="patch_20">
    <path d="M 334.814727 312.0696 
L 550.152 312.0696 
L 550.152 189.3456 
L 334.814727 189.3456 
z
" style="fill:#ffffff;"/>
   </g>
   <g id="matplotlib.axis_7">
    <g id="xtick_19">
     <g id="line2d_97">
      <path clip-path="url(#p3c142e62ef)" d="M 344.602785 312.0696 
L 344.602785 189.3456 
" style="fill:none;stroke:#b0b0b0;stroke-linecap:square;stroke-width:0.8;"/>
     </g>
     <g id="line2d_98">
      <g>
       <use style="stroke:#000000;stroke-width:0.8;" x="344.602785" xlink:href="#m2a1c9360f7" y="312.0696"/>
      </g>
     </g>
     <g id="text_45">
      <!-- 0 -->
      <g transform="translate(341.421535 326.668037)scale(0.1 -0.1)">
       <use xlink:href="#DejaVuSans-30"/>
      </g>
     </g>
    </g>
    <g id="xtick_20">
     <g id="line2d_99">
      <path clip-path="url(#p3c142e62ef)" d="M 383.755017 312.0696 
L 383.755017 189.3456 
" style="fill:none;stroke:#b0b0b0;stroke-linecap:square;stroke-width:0.8;"/>
     </g>
     <g id="line2d_100">
      <g>
       <use style="stroke:#000000;stroke-width:0.8;" x="383.755017" xlink:href="#m2a1c9360f7" y="312.0696"/>
      </g>
     </g>
     <g id="text_46">
      <!-- 2 -->
      <g transform="translate(380.573767 326.668037)scale(0.1 -0.1)">
       <use xlink:href="#DejaVuSans-32"/>
      </g>
     </g>
    </g>
    <g id="xtick_21">
     <g id="line2d_101">
      <path clip-path="url(#p3c142e62ef)" d="M 422.907248 312.0696 
L 422.907248 189.3456 
" style="fill:none;stroke:#b0b0b0;stroke-linecap:square;stroke-width:0.8;"/>
     </g>
     <g id="line2d_102">
      <g>
       <use style="stroke:#000000;stroke-width:0.8;" x="422.907248" xlink:href="#m2a1c9360f7" y="312.0696"/>
      </g>
     </g>
     <g id="text_47">
      <!-- 4 -->
      <g transform="translate(419.725998 326.668037)scale(0.1 -0.1)">
       <use xlink:href="#DejaVuSans-34"/>
      </g>
     </g>
    </g>
    <g id="xtick_22">
     <g id="line2d_103">
      <path clip-path="url(#p3c142e62ef)" d="M 462.059479 312.0696 
L 462.059479 189.3456 
" style="fill:none;stroke:#b0b0b0;stroke-linecap:square;stroke-width:0.8;"/>
     </g>
     <g id="line2d_104">
      <g>
       <use style="stroke:#000000;stroke-width:0.8;" x="462.059479" xlink:href="#m2a1c9360f7" y="312.0696"/>
      </g>
     </g>
     <g id="text_48">
      <!-- 6 -->
      <g transform="translate(458.878229 326.668037)scale(0.1 -0.1)">
       <use xlink:href="#DejaVuSans-36"/>
      </g>
     </g>
    </g>
    <g id="xtick_23">
     <g id="line2d_105">
      <path clip-path="url(#p3c142e62ef)" d="M 501.211711 312.0696 
L 501.211711 189.3456 
" style="fill:none;stroke:#b0b0b0;stroke-linecap:square;stroke-width:0.8;"/>
     </g>
     <g id="line2d_106">
      <g>
       <use style="stroke:#000000;stroke-width:0.8;" x="501.211711" xlink:href="#m2a1c9360f7" y="312.0696"/>
      </g>
     </g>
     <g id="text_49">
      <!-- 8 -->
      <g transform="translate(498.030461 326.668037)scale(0.1 -0.1)">
       <use xlink:href="#DejaVuSans-38"/>
      </g>
     </g>
    </g>
    <g id="xtick_24">
     <g id="line2d_107">
      <path clip-path="url(#p3c142e62ef)" d="M 540.363942 312.0696 
L 540.363942 189.3456 
" style="fill:none;stroke:#b0b0b0;stroke-linecap:square;stroke-width:0.8;"/>
     </g>
     <g id="line2d_108">
      <g>
       <use style="stroke:#000000;stroke-width:0.8;" x="540.363942" xlink:href="#m2a1c9360f7" y="312.0696"/>
      </g>
     </g>
     <g id="text_50">
      <!-- 10 -->
      <g transform="translate(534.001442 326.668037)scale(0.1 -0.1)">
       <use xlink:href="#DejaVuSans-31"/>
       <use x="63.623047" xlink:href="#DejaVuSans-30"/>
      </g>
     </g>
    </g>
    <g id="text_51">
     <!-- time [s] -->
     <g transform="translate(423.091957 340.346162)scale(0.1 -0.1)">
      <use xlink:href="#DejaVuSans-74"/>
      <use x="39.208984" xlink:href="#DejaVuSans-69"/>
      <use x="66.992188" xlink:href="#DejaVuSans-6d"/>
      <use x="164.404297" xlink:href="#DejaVuSans-65"/>
      <use x="225.927734" xlink:href="#DejaVuSans-20"/>
      <use x="257.714844" xlink:href="#DejaVuSans-5b"/>
      <use x="296.728516" xlink:href="#DejaVuSans-73"/>
      <use x="348.828125" xlink:href="#DejaVuSans-5d"/>
     </g>
    </g>
   </g>
   <g id="matplotlib.axis_8">
    <g id="ytick_16">
     <g id="line2d_109">
      <path clip-path="url(#p3c142e62ef)" d="M 334.814727 306.494184 
L 550.152 306.494184 
" style="fill:none;stroke:#b0b0b0;stroke-linecap:square;stroke-width:0.8;"/>
     </g>
     <g id="line2d_110">
      <g>
       <use style="stroke:#000000;stroke-width:0.8;" x="334.814727" xlink:href="#m554bcb1632" y="306.494184"/>
      </g>
     </g>
     <g id="text_52">
      <!-- −1.0 -->
      <g transform="translate(303.531915 310.293402)scale(0.1 -0.1)">
       <use xlink:href="#DejaVuSans-2212"/>
       <use x="83.789062" xlink:href="#DejaVuSans-31"/>
       <use x="147.412109" xlink:href="#DejaVuSans-2e"/>
       <use x="179.199219" xlink:href="#DejaVuSans-30"/>
      </g>
     </g>
    </g>
    <g id="ytick_17">
     <g id="line2d_111">
      <path clip-path="url(#p3c142e62ef)" d="M 334.814727 278.601629 
L 550.152 278.601629 
" style="fill:none;stroke:#b0b0b0;stroke-linecap:square;stroke-width:0.8;"/>
     </g>
     <g id="line2d_112">
      <g>
       <use style="stroke:#000000;stroke-width:0.8;" x="334.814727" xlink:href="#m554bcb1632" y="278.601629"/>
      </g>
     </g>
     <g id="text_53">
      <!-- −0.5 -->
      <g transform="translate(303.531915 282.400847)scale(0.1 -0.1)">
       <use xlink:href="#DejaVuSans-2212"/>
       <use x="83.789062" xlink:href="#DejaVuSans-30"/>
       <use x="147.412109" xlink:href="#DejaVuSans-2e"/>
       <use x="179.199219" xlink:href="#DejaVuSans-35"/>
      </g>
     </g>
    </g>
    <g id="ytick_18">
     <g id="line2d_113">
      <path clip-path="url(#p3c142e62ef)" d="M 334.814727 250.709074 
L 550.152 250.709074 
" style="fill:none;stroke:#b0b0b0;stroke-linecap:square;stroke-width:0.8;"/>
     </g>
     <g id="line2d_114">
      <g>
       <use style="stroke:#000000;stroke-width:0.8;" x="334.814727" xlink:href="#m554bcb1632" y="250.709074"/>
      </g>
     </g>
     <g id="text_54">
      <!-- 0.0 -->
      <g transform="translate(311.911602 254.508292)scale(0.1 -0.1)">
       <use xlink:href="#DejaVuSans-30"/>
       <use x="63.623047" xlink:href="#DejaVuSans-2e"/>
       <use x="95.410156" xlink:href="#DejaVuSans-30"/>
      </g>
     </g>
    </g>
    <g id="ytick_19">
     <g id="line2d_115">
      <path clip-path="url(#p3c142e62ef)" d="M 334.814727 222.816519 
L 550.152 222.816519 
" style="fill:none;stroke:#b0b0b0;stroke-linecap:square;stroke-width:0.8;"/>
     </g>
     <g id="line2d_116">
      <g>
       <use style="stroke:#000000;stroke-width:0.8;" x="334.814727" xlink:href="#m554bcb1632" y="222.816519"/>
      </g>
     </g>
     <g id="text_55">
      <!-- 0.5 -->
      <g transform="translate(311.911602 226.615737)scale(0.1 -0.1)">
       <use xlink:href="#DejaVuSans-30"/>
       <use x="63.623047" xlink:href="#DejaVuSans-2e"/>
       <use x="95.410156" xlink:href="#DejaVuSans-35"/>
      </g>
     </g>
    </g>
    <g id="ytick_20">
     <g id="line2d_117">
      <path clip-path="url(#p3c142e62ef)" d="M 334.814727 194.923964 
L 550.152 194.923964 
" style="fill:none;stroke:#b0b0b0;stroke-linecap:square;stroke-width:0.8;"/>
     </g>
     <g id="line2d_118">
      <g>
       <use style="stroke:#000000;stroke-width:0.8;" x="334.814727" xlink:href="#m554bcb1632" y="194.923964"/>
      </g>
     </g>
     <g id="text_56">
      <!-- 1.0 -->
      <g transform="translate(311.911602 198.723182)scale(0.1 -0.1)">
       <use xlink:href="#DejaVuSans-31"/>
       <use x="63.623047" xlink:href="#DejaVuSans-2e"/>
       <use x="95.410156" xlink:href="#DejaVuSans-30"/>
      </g>
     </g>
    </g>
   </g>
   <g id="line2d_119">
    <path clip-path="url(#p3c142e62ef)" d="M 344.602785 250.709074 
L 346.580171 245.083791 
L 348.557556 239.515855 
L 350.534941 234.062027 
L 352.512327 228.777905 
L 354.489712 223.717357 
L 356.467098 218.931972 
L 358.444483 214.470535 
L 360.421869 210.378528 
L 362.399254 206.697664 
L 364.376639 203.465469 
L 366.354025 200.714893 
L 368.33141 198.473976 
L 370.308796 196.765563 
L 372.286181 195.607069 
L 374.263566 195.010306 
L 376.240952 194.981357 
L 378.218337 195.520516 
L 380.195723 196.622288 
L 382.173108 198.275441 
L 384.150494 200.463121 
L 386.127879 203.163027 
L 388.105264 206.347635 
L 390.08265 209.98448 
L 392.060035 214.036486 
L 394.037421 218.462347 
L 396.014806 223.216942 
L 397.992192 228.251802 
L 399.969577 233.5156 
L 401.946962 238.954674 
L 403.924348 244.513577 
L 405.901733 250.135639 
L 407.879119 255.763548 
L 409.856504 261.339928 
L 411.83389 266.807934 
L 413.811275 272.111823 
L 415.78866 277.197524 
L 417.766046 282.013191 
L 419.743431 286.509734 
L 421.720817 290.641311 
L 423.698202 294.365804 
L 425.675588 297.645244 
L 427.652973 300.4462 
L 429.630358 302.740117 
L 431.607744 304.50361 
L 433.585129 305.718702 
L 435.562515 306.373006 
L 437.5399 306.459851 
L 439.517285 305.978352 
L 441.494671 304.933418 
L 443.472056 303.335701 
L 445.449442 301.201489 
L 447.426827 298.552538 
L 449.404213 295.415853 
L 451.381598 291.823411 
L 453.358983 287.811835 
L 455.336369 283.422019 
L 457.313754 278.698715 
L 459.29114 273.690075 
L 461.268525 268.447158 
L 463.245911 263.023412 
L 465.223296 257.47413 
L 467.200681 251.855881 
L 469.178067 246.225942 
L 471.155452 240.641706 
L 473.132838 235.1601 
L 475.110223 229.837006 
L 477.087609 224.72669 
L 479.064994 219.881247 
L 481.042379 215.350075 
L 483.019765 211.179365 
L 484.99715 207.411636 
L 486.974536 204.085297 
L 488.951921 201.234258 
L 490.929307 198.887583 
L 492.906692 197.069196 
L 494.884077 195.797633 
L 496.861463 195.085858 
L 498.838848 194.941126 
L 500.816234 195.364914 
L 502.793619 196.3529 
L 504.771005 197.895013 
L 506.74839 199.975532 
L 508.725775 202.573247 
L 510.703161 205.661677 
L 512.680546 209.209336 
L 514.657932 213.180059 
L 516.635317 217.533367 
L 518.612702 222.22488 
L 520.590088 227.206771 
L 522.567473 232.428254 
L 524.544859 237.836097 
L 526.522244 243.375173 
L 528.49963 248.989013 
L 530.477015 254.620389 
L 532.4544 260.21189 
L 534.431786 265.706517 
L 536.409171 271.048254 
L 538.386557 276.182646 
L 540.363942 281.057351 
" style="fill:none;stroke:#1f77b4;stroke-linecap:square;stroke-width:1.5;"/>
   </g>
   <g id="line2d_120">
    <path clip-path="url(#p3c142e62ef)" d="M 344.602785 194.923964 
L 346.580171 195.208311 
L 348.557556 196.058453 
L 350.534941 197.465724 
L 352.512327 199.415777 
L 354.489712 201.888732 
L 356.467098 204.859381 
L 358.444483 208.297438 
L 360.421869 212.167855 
L 362.399254 216.431175 
L 364.376639 221.043937 
L 366.354025 225.959116 
L 368.33141 231.126605 
L 370.308796 236.493725 
L 372.286181 242.005762 
L 374.263566 247.606523 
L 376.240952 253.238913 
L 378.218337 258.845513 
L 380.195723 264.369167 
L 382.173108 269.753565 
L 384.150494 274.943817 
L 386.127879 279.88701 
L 388.105264 284.532753 
L 390.08265 288.833685 
L 392.060035 292.74596 
L 394.037421 296.229696 
L 396.014806 299.249378 
L 397.992192 301.774223 
L 399.969577 303.77849 
L 401.946962 305.241748 
L 403.924348 306.14908 
L 405.901733 306.491236 
L 407.879119 306.264729 
L 409.856504 305.471866 
L 411.83389 304.120731 
L 413.811275 302.225099 
L 415.78866 299.804293 
L 417.766046 296.882992 
L 419.743431 293.490977 
L 421.720817 289.662828 
L 423.698202 285.43757 
L 425.675588 280.858276 
L 427.652973 275.971631 
L 429.630358 270.82745 
L 431.607744 265.478175 
L 433.585129 259.978338 
L 435.562515 254.384007 
L 437.5399 248.752212 
L 439.517285 243.140366 
L 441.494671 237.605678 
L 443.472056 232.204572 
L 445.449442 226.992106 
L 447.426827 222.021421 
L 449.404213 217.343188 
L 451.381598 213.005099 
L 453.358983 209.051378 
L 455.336369 205.522331 
L 457.313754 202.453934 
L 459.29114 199.877469 
L 461.268525 197.819199 
L 463.245911 196.300108 
L 465.223296 195.335682 
L 467.200681 194.935753 
L 469.178067 195.104397 
L 471.155452 195.839896 
L 473.132838 197.134752 
L 475.110223 198.975764 
L 477.087609 201.344165 
L 479.064994 204.215809 
L 481.042379 207.561423 
L 483.019765 211.346901 
L 484.99715 215.53365 
L 486.974536 220.078991 
L 488.951921 224.936586 
L 490.929307 230.056915 
L 492.906692 235.38778 
L 494.884077 240.874836 
L 496.861463 246.462146 
L 498.838848 252.092751 
L 500.816234 257.70925 
L 502.793619 263.254386 
L 504.771005 268.671631 
L 506.74839 273.905759 
L 508.725775 278.903412 
L 510.703161 283.613641 
L 512.680546 287.988428 
L 514.657932 291.983177 
L 516.635317 295.557161 
L 518.612702 298.673948 
L 520.590088 301.301764 
L 522.567473 303.413818 
L 524.544859 304.988582 
L 526.522244 306.01 
L 528.49963 306.46766 
L 530.477015 306.356896 
L 532.4544 305.678838 
L 534.431786 304.440398 
L 536.409171 302.654201 
L 538.386557 300.338456 
L 540.363942 297.516771 
" style="fill:none;stroke:#ff7f0e;stroke-linecap:square;stroke-width:1.5;"/>
   </g>
   <g id="patch_21">
    <path d="M 334.814727 312.0696 
L 334.814727 189.3456 
" style="fill:none;stroke:#000000;stroke-linecap:square;stroke-linejoin:miter;stroke-width:0.8;"/>
   </g>
   <g id="patch_22">
    <path d="M 550.152 312.0696 
L 550.152 189.3456 
" style="fill:none;stroke:#000000;stroke-linecap:square;stroke-linejoin:miter;stroke-width:0.8;"/>
   </g>
   <g id="patch_23">
    <path d="M 334.814727 312.0696 
L 550.152 312.0696 
" style="fill:none;stroke:#000000;stroke-linecap:square;stroke-linejoin:miter;stroke-width:0.8;"/>
   </g>
   <g id="patch_24">
    <path d="M 334.814727 189.3456 
L 550.152 189.3456 
" style="fill:none;stroke:#000000;stroke-linecap:square;stroke-linejoin:miter;stroke-width:0.8;"/>
   </g>
   <g id="legend_4">
    <g id="patch_25">
     <path d="M 341.814727 266.885725 
L 418.139727 266.885725 
Q 420.139727 266.885725 420.139727 264.885725 
L 420.139727 236.529475 
Q 420.139727 234.529475 418.139727 234.529475 
L 341.814727 234.529475 
Q 339.814727 234.529475 339.814727 236.529475 
L 339.814727 264.885725 
Q 339.814727 266.885725 341.814727 266.885725 
z
" style="fill:#ffffff;opacity:0.8;stroke:#cccccc;stroke-linejoin:miter;"/>
    </g>
    <g id="line2d_121">
     <path d="M 343.814727 242.627912 
L 363.814727 242.627912 
" style="fill:none;stroke:#1f77b4;stroke-linecap:square;stroke-width:1.5;"/>
    </g>
    <g id="line2d_122"/>
    <g id="text_57">
     <!-- phi [rad] -->
     <g transform="translate(371.814727 246.127912)scale(0.1 -0.1)">
      <use xlink:href="#DejaVuSans-70"/>
      <use x="63.476562" xlink:href="#DejaVuSans-68"/>
      <use x="126.855469" xlink:href="#DejaVuSans-69"/>
      <use x="154.638672" xlink:href="#DejaVuSans-20"/>
      <use x="186.425781" xlink:href="#DejaVuSans-5b"/>
      <use x="225.439453" xlink:href="#DejaVuSans-72"/>
      <use x="266.552734" xlink:href="#DejaVuSans-61"/>
      <use x="327.832031" xlink:href="#DejaVuSans-64"/>
      <use x="391.308594" xlink:href="#DejaVuSans-5d"/>
     </g>
    </g>
    <g id="line2d_123">
     <path d="M 343.814727 257.306038 
L 363.814727 257.306038 
" style="fill:none;stroke:#ff7f0e;stroke-linecap:square;stroke-width:1.5;"/>
    </g>
    <g id="line2d_124"/>
    <g id="text_58">
     <!-- w [rad/s] -->
     <g transform="translate(371.814727 260.806038)scale(0.1 -0.1)">
      <use xlink:href="#DejaVuSans-77"/>
      <use x="81.787109" xlink:href="#DejaVuSans-20"/>
      <use x="113.574219" xlink:href="#DejaVuSans-5b"/>
      <use x="152.587891" xlink:href="#DejaVuSans-72"/>
      <use x="193.701172" xlink:href="#DejaVuSans-61"/>
      <use x="254.980469" xlink:href="#DejaVuSans-64"/>
      <use x="318.457031" xlink:href="#DejaVuSans-2f"/>
      <use x="352.148438" xlink:href="#DejaVuSans-73"/>
      <use x="404.248047" xlink:href="#DejaVuSans-5d"/>
     </g>
    </g>
   </g>
  </g>
  <g id="text_59">
   <!-- Matrix of plots -->
   <defs>
    <path d="M 9.8125 72.90625 
L 24.515625 72.90625 
L 43.109375 23.296875 
L 61.8125 72.90625 
L 76.515625 72.90625 
L 76.515625 0 
L 66.890625 0 
L 66.890625 64.015625 
L 48.09375 14.015625 
L 38.1875 14.015625 
L 19.390625 64.015625 
L 19.390625 0 
L 9.8125 0 
z
" id="DejaVuSans-4d"/>
    <path d="M 54.890625 54.6875 
L 35.109375 28.078125 
L 55.90625 0 
L 45.3125 0 
L 29.390625 21.484375 
L 13.484375 0 
L 2.875 0 
L 24.125 28.609375 
L 4.6875 54.6875 
L 15.28125 54.6875 
L 29.78125 35.203125 
L 44.28125 54.6875 
z
" id="DejaVuSans-78"/>
    <path d="M 30.609375 48.390625 
Q 23.390625 48.390625 19.1875 42.75 
Q 14.984375 37.109375 14.984375 27.296875 
Q 14.984375 17.484375 19.15625 11.84375 
Q 23.34375 6.203125 30.609375 6.203125 
Q 37.796875 6.203125 41.984375 11.859375 
Q 46.1875 17.53125 46.1875 27.296875 
Q 46.1875 37.015625 41.984375 42.703125 
Q 37.796875 48.390625 30.609375 48.390625 
z
M 30.609375 56 
Q 42.328125 56 49.015625 48.375 
Q 55.71875 40.765625 55.71875 27.296875 
Q 55.71875 13.875 49.015625 6.21875 
Q 42.328125 -1.421875 30.609375 -1.421875 
Q 18.84375 -1.421875 12.171875 6.21875 
Q 5.515625 13.875 5.515625 27.296875 
Q 5.515625 40.765625 12.171875 48.375 
Q 18.84375 56 30.609375 56 
z
" id="DejaVuSans-6f"/>
    <path d="M 37.109375 75.984375 
L 37.109375 68.5 
L 28.515625 68.5 
Q 23.6875 68.5 21.796875 66.546875 
Q 19.921875 64.59375 19.921875 59.515625 
L 19.921875 54.6875 
L 34.71875 54.6875 
L 34.71875 47.703125 
L 19.921875 47.703125 
L 19.921875 0 
L 10.890625 0 
L 10.890625 47.703125 
L 2.296875 47.703125 
L 2.296875 54.6875 
L 10.890625 54.6875 
L 10.890625 58.5 
Q 10.890625 67.625 15.140625 71.796875 
Q 19.390625 75.984375 28.609375 75.984375 
z
" id="DejaVuSans-66"/>
    <path d="M 9.421875 75.984375 
L 18.40625 75.984375 
L 18.40625 0 
L 9.421875 0 
z
" id="DejaVuSans-6c"/>
   </defs>
   <g transform="translate(269.712656 14.611238)scale(0.1 -0.1)">
    <use xlink:href="#DejaVuSans-4d"/>
    <use x="86.279297" xlink:href="#DejaVuSans-61"/>
    <use x="147.558594" xlink:href="#DejaVuSans-74"/>
    <use x="186.767578" xlink:href="#DejaVuSans-72"/>
    <use x="227.880859" xlink:href="#DejaVuSans-69"/>
    <use x="255.664062" xlink:href="#DejaVuSans-78"/>
    <use x="314.84375" xlink:href="#DejaVuSans-20"/>
    <use x="346.630859" xlink:href="#DejaVuSans-6f"/>
    <use x="407.8125" xlink:href="#DejaVuSans-66"/>
    <use x="443.017578" xlink:href="#DejaVuSans-20"/>
    <use x="474.804688" xlink:href="#DejaVuSans-70"/>
    <use x="538.28125" xlink:href="#DejaVuSans-6c"/>
    <use x="566.064453" xlink:href="#DejaVuSans-6f"/>
    <use x="627.246094" xlink:href="#DejaVuSans-74"/>
    <use x="666.455078" xlink:href="#DejaVuSans-73"/>
   </g>
  </g>
 </g>
 <defs>
  <clipPath id="p57632b7e28">
   <rect height="122.724" width="215.337273" x="76.41" y="42.0768"/>
  </clipPath>
  <clipPath id="pe0b0cd4595">
   <rect height="122.724" width="215.337273" x="334.814727" y="42.0768"/>
  </clipPath>
  <clipPath id="p5f30e423fb">
   <rect height="122.724" width="215.337273" x="76.41" y="189.3456"/>
  </clipPath>
  <clipPath id="p3c142e62ef">
   <rect height="122.724" width="215.337273" x="334.814727" y="189.3456"/>
  </clipPath>
 </defs>
</svg>
