<?xml version="1.0" encoding="utf-8" standalone="no"?>
<!DOCTYPE svg PUBLIC "-//W3C//DTD SVG 1.1//EN"
  "http://www.w3.org/Graphics/SVG/1.1/DTD/svg11.dtd">
<!-- Created with matplotlib (http://matplotlib.org/) -->
<svg height="277pt" version="1.1" viewBox="0 0 621 277" width="621pt" xmlns="http://www.w3.org/2000/svg" xmlns:xlink="http://www.w3.org/1999/xlink">
 <defs>
  <style type="text/css">
*{stroke-linecap:butt;stroke-linejoin:round;}
  </style>
 </defs>
 <g id="figure_1">
  <g id="patch_1">
   <path d="M 0 277.92 
L 621.36 277.92 
L 621.36 0 
L 0 0 
z
" style="fill:#ffffff;"/>
  </g>
  <g id="axes_1">
   <g id="patch_2">
    <path d="M 77.67 247.3488 
L 296.558182 247.3488 
L 296.558182 33.3504 
L 77.67 33.3504 
z
" style="fill:#ffffff;"/>
   </g>
   <g id="matplotlib.axis_1">
    <g id="xtick_1">
     <g id="line2d_1">
      <path clip-path="url(#pe18f4ee06c)" d="M 87.619463 247.3488 
L 87.619463 33.3504 
" style="fill:none;stroke:#b0b0b0;stroke-linecap:square;stroke-width:0.8;"/>
     </g>
     <g id="line2d_2">
      <defs>
       <path d="M 0 0 
L 0 3.5 
" id="m38e28de6e6" style="stroke:#000000;stroke-width:0.8;"/>
      </defs>
      <g>
       <use style="stroke:#000000;stroke-width:0.8;" x="87.619463" xlink:href="#m38e28de6e6" y="247.3488"/>
      </g>
     </g>
     <g id="text_1">
      <!-- 0 -->
      <defs>
       <path d="M 31.78125 66.40625 
Q 24.171875 66.40625 20.328125 58.90625 
Q 16.5 51.421875 16.5 36.375 
Q 16.5 21.390625 20.328125 13.890625 
Q 24.171875 6.390625 31.78125 6.390625 
Q 39.453125 6.390625 43.28125 13.890625 
Q 47.125 21.390625 47.125 36.375 
Q 47.125 51.421875 43.28125 58.90625 
Q 39.453125 66.40625 31.78125 66.40625 
z
M 31.78125 74.21875 
Q 44.046875 74.21875 50.515625 64.515625 
Q 56.984375 54.828125 56.984375 36.375 
Q 56.984375 17.96875 50.515625 8.265625 
Q 44.046875 -1.421875 31.78125 -1.421875 
Q 19.53125 -1.421875 13.0625 8.265625 
Q 6.59375 17.96875 6.59375 36.375 
Q 6.59375 54.828125 13.0625 64.515625 
Q 19.53125 74.21875 31.78125 74.21875 
z
" id="DejaVuSans-30"/>
      </defs>
      <g transform="translate(84.438213 261.947238)scale(0.1 -0.1)">
       <use xlink:href="#DejaVuSans-30"/>
      </g>
     </g>
    </g>
    <g id="xtick_2">
     <g id="line2d_3">
      <path clip-path="url(#pe18f4ee06c)" d="M 127.417314 247.3488 
L 127.417314 33.3504 
" style="fill:none;stroke:#b0b0b0;stroke-linecap:square;stroke-width:0.8;"/>
     </g>
     <g id="line2d_4">
      <g>
       <use style="stroke:#000000;stroke-width:0.8;" x="127.417314" xlink:href="#m38e28de6e6" y="247.3488"/>
      </g>
     </g>
     <g id="text_2">
      <!-- 1 -->
      <defs>
       <path d="M 12.40625 8.296875 
L 28.515625 8.296875 
L 28.515625 63.921875 
L 10.984375 60.40625 
L 10.984375 69.390625 
L 28.421875 72.90625 
L 38.28125 72.90625 
L 38.28125 8.296875 
L 54.390625 8.296875 
L 54.390625 0 
L 12.40625 0 
z
" id="DejaVuSans-31"/>
      </defs>
      <g transform="translate(124.236064 261.947238)scale(0.1 -0.1)">
       <use xlink:href="#DejaVuSans-31"/>
      </g>
     </g>
    </g>
    <g id="xtick_3">
     <g id="line2d_5">
      <path clip-path="url(#pe18f4ee06c)" d="M 167.215165 247.3488 
L 167.215165 33.3504 
" style="fill:none;stroke:#b0b0b0;stroke-linecap:square;stroke-width:0.8;"/>
     </g>
     <g id="line2d_6">
      <g>
       <use style="stroke:#000000;stroke-width:0.8;" x="167.215165" xlink:href="#m38e28de6e6" y="247.3488"/>
      </g>
     </g>
     <g id="text_3">
      <!-- 2 -->
      <defs>
       <path d="M 19.1875 8.296875 
L 53.609375 8.296875 
L 53.609375 0 
L 7.328125 0 
L 7.328125 8.296875 
Q 12.9375 14.109375 22.625 23.890625 
Q 32.328125 33.6875 34.8125 36.53125 
Q 39.546875 41.84375 41.421875 45.53125 
Q 43.3125 49.21875 43.3125 52.78125 
Q 43.3125 58.59375 39.234375 62.25 
Q 35.15625 65.921875 28.609375 65.921875 
Q 23.96875 65.921875 18.8125 64.3125 
Q 13.671875 62.703125 7.8125 59.421875 
L 7.8125 69.390625 
Q 13.765625 71.78125 18.9375 73 
Q 24.125 74.21875 28.421875 74.21875 
Q 39.75 74.21875 46.484375 68.546875 
Q 53.21875 62.890625 53.21875 53.421875 
Q 53.21875 48.921875 51.53125 44.890625 
Q 49.859375 40.875 45.40625 35.40625 
Q 44.1875 33.984375 37.640625 27.21875 
Q 31.109375 20.453125 19.1875 8.296875 
z
" id="DejaVuSans-32"/>
      </defs>
      <g transform="translate(164.033915 261.947238)scale(0.1 -0.1)">
       <use xlink:href="#DejaVuSans-32"/>
      </g>
     </g>
    </g>
    <g id="xtick_4">
     <g id="line2d_7">
      <path clip-path="url(#pe18f4ee06c)" d="M 207.013017 247.3488 
L 207.013017 33.3504 
" style="fill:none;stroke:#b0b0b0;stroke-linecap:square;stroke-width:0.8;"/>
     </g>
     <g id="line2d_8">
      <g>
       <use style="stroke:#000000;stroke-width:0.8;" x="207.013017" xlink:href="#m38e28de6e6" y="247.3488"/>
      </g>
     </g>
     <g id="text_4">
      <!-- 3 -->
      <defs>
       <path d="M 40.578125 39.3125 
Q 47.65625 37.796875 51.625 33 
Q 55.609375 28.21875 55.609375 21.1875 
Q 55.609375 10.40625 48.1875 4.484375 
Q 40.765625 -1.421875 27.09375 -1.421875 
Q 22.515625 -1.421875 17.65625 -0.515625 
Q 12.796875 0.390625 7.625 2.203125 
L 7.625 11.71875 
Q 11.71875 9.328125 16.59375 8.109375 
Q 21.484375 6.890625 26.8125 6.890625 
Q 36.078125 6.890625 40.9375 10.546875 
Q 45.796875 14.203125 45.796875 21.1875 
Q 45.796875 27.640625 41.28125 31.265625 
Q 36.765625 34.90625 28.71875 34.90625 
L 20.21875 34.90625 
L 20.21875 43.015625 
L 29.109375 43.015625 
Q 36.375 43.015625 40.234375 45.921875 
Q 44.09375 48.828125 44.09375 54.296875 
Q 44.09375 59.90625 40.109375 62.90625 
Q 36.140625 65.921875 28.71875 65.921875 
Q 24.65625 65.921875 20.015625 65.03125 
Q 15.375 64.15625 9.8125 62.3125 
L 9.8125 71.09375 
Q 15.4375 72.65625 20.34375 73.4375 
Q 25.25 74.21875 29.59375 74.21875 
Q 40.828125 74.21875 47.359375 69.109375 
Q 53.90625 64.015625 53.90625 55.328125 
Q 53.90625 49.265625 50.4375 45.09375 
Q 46.96875 40.921875 40.578125 39.3125 
z
" id="DejaVuSans-33"/>
      </defs>
      <g transform="translate(203.831767 261.947238)scale(0.1 -0.1)">
       <use xlink:href="#DejaVuSans-33"/>
      </g>
     </g>
    </g>
    <g id="xtick_5">
     <g id="line2d_9">
      <path clip-path="url(#pe18f4ee06c)" d="M 246.810868 247.3488 
L 246.810868 33.3504 
" style="fill:none;stroke:#b0b0b0;stroke-linecap:square;stroke-width:0.8;"/>
     </g>
     <g id="line2d_10">
      <g>
       <use style="stroke:#000000;stroke-width:0.8;" x="246.810868" xlink:href="#m38e28de6e6" y="247.3488"/>
      </g>
     </g>
     <g id="text_5">
      <!-- 4 -->
      <defs>
       <path d="M 37.796875 64.3125 
L 12.890625 25.390625 
L 37.796875 25.390625 
z
M 35.203125 72.90625 
L 47.609375 72.90625 
L 47.609375 25.390625 
L 58.015625 25.390625 
L 58.015625 17.1875 
L 47.609375 17.1875 
L 47.609375 0 
L 37.796875 0 
L 37.796875 17.1875 
L 4.890625 17.1875 
L 4.890625 26.703125 
z
" id="DejaVuSans-34"/>
      </defs>
      <g transform="translate(243.629618 261.947238)scale(0.1 -0.1)">
       <use xlink:href="#DejaVuSans-34"/>
      </g>
     </g>
    </g>
    <g id="xtick_6">
     <g id="line2d_11">
      <path clip-path="url(#pe18f4ee06c)" d="M 286.608719 247.3488 
L 286.608719 33.3504 
" style="fill:none;stroke:#b0b0b0;stroke-linecap:square;stroke-width:0.8;"/>
     </g>
     <g id="line2d_12">
      <g>
       <use style="stroke:#000000;stroke-width:0.8;" x="286.608719" xlink:href="#m38e28de6e6" y="247.3488"/>
      </g>
     </g>
     <g id="text_6">
      <!-- 5 -->
      <defs>
       <path d="M 10.796875 72.90625 
L 49.515625 72.90625 
L 49.515625 64.59375 
L 19.828125 64.59375 
L 19.828125 46.734375 
Q 21.96875 47.46875 24.109375 47.828125 
Q 26.265625 48.1875 28.421875 48.1875 
Q 40.625 48.1875 47.75 41.5 
Q 54.890625 34.8125 54.890625 23.390625 
Q 54.890625 11.625 47.5625 5.09375 
Q 40.234375 -1.421875 26.90625 -1.421875 
Q 22.3125 -1.421875 17.546875 -0.640625 
Q 12.796875 0.140625 7.71875 1.703125 
L 7.71875 11.625 
Q 12.109375 9.234375 16.796875 8.0625 
Q 21.484375 6.890625 26.703125 6.890625 
Q 35.15625 6.890625 40.078125 11.328125 
Q 45.015625 15.765625 45.015625 23.390625 
Q 45.015625 31 40.078125 35.4375 
Q 35.15625 39.890625 26.703125 39.890625 
Q 22.75 39.890625 18.8125 39.015625 
Q 14.890625 38.140625 10.796875 36.28125 
z
" id="DejaVuSans-35"/>
      </defs>
      <g transform="translate(283.427469 261.947238)scale(0.1 -0.1)">
       <use xlink:href="#DejaVuSans-35"/>
      </g>
     </g>
    </g>
    <g id="text_7">
     <!-- time [s] -->
     <defs>
      <path d="M 18.3125 70.21875 
L 18.3125 54.6875 
L 36.8125 54.6875 
L 36.8125 47.703125 
L 18.3125 47.703125 
L 18.3125 18.015625 
Q 18.3125 11.328125 20.140625 9.421875 
Q 21.96875 7.515625 27.59375 7.515625 
L 36.8125 7.515625 
L 36.8125 0 
L 27.59375 0 
Q 17.1875 0 13.234375 3.875 
Q 9.28125 7.765625 9.28125 18.015625 
L 9.28125 47.703125 
L 2.6875 47.703125 
L 2.6875 54.6875 
L 9.28125 54.6875 
L 9.28125 70.21875 
z
" id="DejaVuSans-74"/>
      <path d="M 9.421875 54.6875 
L 18.40625 54.6875 
L 18.40625 0 
L 9.421875 0 
z
M 9.421875 75.984375 
L 18.40625 75.984375 
L 18.40625 64.59375 
L 9.421875 64.59375 
z
" id="DejaVuSans-69"/>
      <path d="M 52 44.1875 
Q 55.375 50.25 60.0625 53.125 
Q 64.75 56 71.09375 56 
Q 79.640625 56 84.28125 50.015625 
Q 88.921875 44.046875 88.921875 33.015625 
L 88.921875 0 
L 79.890625 0 
L 79.890625 32.71875 
Q 79.890625 40.578125 77.09375 44.375 
Q 74.3125 48.1875 68.609375 48.1875 
Q 61.625 48.1875 57.5625 43.546875 
Q 53.515625 38.921875 53.515625 30.90625 
L 53.515625 0 
L 44.484375 0 
L 44.484375 32.71875 
Q 44.484375 40.625 41.703125 44.40625 
Q 38.921875 48.1875 33.109375 48.1875 
Q 26.21875 48.1875 22.15625 43.53125 
Q 18.109375 38.875 18.109375 30.90625 
L 18.109375 0 
L 9.078125 0 
L 9.078125 54.6875 
L 18.109375 54.6875 
L 18.109375 46.1875 
Q 21.1875 51.21875 25.484375 53.609375 
Q 29.78125 56 35.6875 56 
Q 41.65625 56 45.828125 52.96875 
Q 50 49.953125 52 44.1875 
z
" id="DejaVuSans-6d"/>
      <path d="M 56.203125 29.59375 
L 56.203125 25.203125 
L 14.890625 25.203125 
Q 15.484375 15.921875 20.484375 11.0625 
Q 25.484375 6.203125 34.421875 6.203125 
Q 39.59375 6.203125 44.453125 7.46875 
Q 49.3125 8.734375 54.109375 11.28125 
L 54.109375 2.78125 
Q 49.265625 0.734375 44.1875 -0.34375 
Q 39.109375 -1.421875 33.890625 -1.421875 
Q 20.796875 -1.421875 13.15625 6.1875 
Q 5.515625 13.8125 5.515625 26.8125 
Q 5.515625 40.234375 12.765625 48.109375 
Q 20.015625 56 32.328125 56 
Q 43.359375 56 49.78125 48.890625 
Q 56.203125 41.796875 56.203125 29.59375 
z
M 47.21875 32.234375 
Q 47.125 39.59375 43.09375 43.984375 
Q 39.0625 48.390625 32.421875 48.390625 
Q 24.90625 48.390625 20.390625 44.140625 
Q 15.875 39.890625 15.1875 32.171875 
z
" id="DejaVuSans-65"/>
      <path id="DejaVuSans-20"/>
      <path d="M 8.59375 75.984375 
L 29.296875 75.984375 
L 29.296875 69 
L 17.578125 69 
L 17.578125 -6.203125 
L 29.296875 -6.203125 
L 29.296875 -13.1875 
L 8.59375 -13.1875 
z
" id="DejaVuSans-5b"/>
      <path d="M 44.28125 53.078125 
L 44.28125 44.578125 
Q 40.484375 46.53125 36.375 47.5 
Q 32.28125 48.484375 27.875 48.484375 
Q 21.1875 48.484375 17.84375 46.4375 
Q 14.5 44.390625 14.5 40.28125 
Q 14.5 37.15625 16.890625 35.375 
Q 19.28125 33.59375 26.515625 31.984375 
L 29.59375 31.296875 
Q 39.15625 29.25 43.1875 25.515625 
Q 47.21875 21.78125 47.21875 15.09375 
Q 47.21875 7.46875 41.1875 3.015625 
Q 35.15625 -1.421875 24.609375 -1.421875 
Q 20.21875 -1.421875 15.453125 -0.5625 
Q 10.6875 0.296875 5.421875 2 
L 5.421875 11.28125 
Q 10.40625 8.6875 15.234375 7.390625 
Q 20.0625 6.109375 24.8125 6.109375 
Q 31.15625 6.109375 34.5625 8.28125 
Q 37.984375 10.453125 37.984375 14.40625 
Q 37.984375 18.0625 35.515625 20.015625 
Q 33.0625 21.96875 24.703125 23.78125 
L 21.578125 24.515625 
Q 13.234375 26.265625 9.515625 29.90625 
Q 5.8125 33.546875 5.8125 39.890625 
Q 5.8125 47.609375 11.28125 51.796875 
Q 16.75 56 26.8125 56 
Q 31.78125 56 36.171875 55.265625 
Q 40.578125 54.546875 44.28125 53.078125 
z
" id="DejaVuSans-73"/>
      <path d="M 30.421875 75.984375 
L 30.421875 -13.1875 
L 9.71875 -13.1875 
L 9.71875 -6.203125 
L 21.390625 -6.203125 
L 21.390625 69 
L 9.71875 69 
L 9.71875 75.984375 
z
" id="DejaVuSans-5d"/>
     </defs>
     <g transform="translate(167.722685 275.625362)scale(0.1 -0.1)">
      <use xlink:href="#DejaVuSans-74"/>
      <use x="39.208984" xlink:href="#DejaVuSans-69"/>
      <use x="66.992188" xlink:href="#DejaVuSans-6d"/>
      <use x="164.404297" xlink:href="#DejaVuSans-65"/>
      <use x="225.927734" xlink:href="#DejaVuSans-20"/>
      <use x="257.714844" xlink:href="#DejaVuSans-5b"/>
      <use x="296.728516" xlink:href="#DejaVuSans-73"/>
      <use x="348.828125" xlink:href="#DejaVuSans-5d"/>
     </g>
    </g>
   </g>
   <g id="matplotlib.axis_2">
    <g id="ytick_1">
     <g id="line2d_13">
      <path clip-path="url(#pe18f4ee06c)" d="M 77.67 230.179615 
L 296.558182 230.179615 
" style="fill:none;stroke:#b0b0b0;stroke-linecap:square;stroke-width:0.8;"/>
     </g>
     <g id="line2d_14">
      <defs>
       <path d="M 0 0 
L -3.5 0 
" id="m4ce620ffb4" style="stroke:#000000;stroke-width:0.8;"/>
      </defs>
      <g>
       <use style="stroke:#000000;stroke-width:0.8;" x="77.67" xlink:href="#m4ce620ffb4" y="230.179615"/>
      </g>
     </g>
     <g id="text_8">
      <!-- −4 -->
      <defs>
       <path d="M 10.59375 35.5 
L 73.1875 35.5 
L 73.1875 27.203125 
L 10.59375 27.203125 
z
" id="DejaVuSans-2212"/>
      </defs>
      <g transform="translate(55.927813 233.978834)scale(0.1 -0.1)">
       <use xlink:href="#DejaVuSans-2212"/>
       <use x="83.789062" xlink:href="#DejaVuSans-34"/>
      </g>
     </g>
    </g>
    <g id="ytick_2">
     <g id="line2d_15">
      <path clip-path="url(#pe18f4ee06c)" d="M 77.67 204.192036 
L 296.558182 204.192036 
" style="fill:none;stroke:#b0b0b0;stroke-linecap:square;stroke-width:0.8;"/>
     </g>
     <g id="line2d_16">
      <g>
       <use style="stroke:#000000;stroke-width:0.8;" x="77.67" xlink:href="#m4ce620ffb4" y="204.192036"/>
      </g>
     </g>
     <g id="text_9">
      <!-- −3 -->
      <g transform="translate(55.927813 207.991255)scale(0.1 -0.1)">
       <use xlink:href="#DejaVuSans-2212"/>
       <use x="83.789062" xlink:href="#DejaVuSans-33"/>
      </g>
     </g>
    </g>
    <g id="ytick_3">
     <g id="line2d_17">
      <path clip-path="url(#pe18f4ee06c)" d="M 77.67 178.204458 
L 296.558182 178.204458 
" style="fill:none;stroke:#b0b0b0;stroke-linecap:square;stroke-width:0.8;"/>
     </g>
     <g id="line2d_18">
      <g>
       <use style="stroke:#000000;stroke-width:0.8;" x="77.67" xlink:href="#m4ce620ffb4" y="178.204458"/>
      </g>
     </g>
     <g id="text_10">
      <!-- −2 -->
      <g transform="translate(55.927813 182.003677)scale(0.1 -0.1)">
       <use xlink:href="#DejaVuSans-2212"/>
       <use x="83.789062" xlink:href="#DejaVuSans-32"/>
      </g>
     </g>
    </g>
    <g id="ytick_4">
     <g id="line2d_19">
      <path clip-path="url(#pe18f4ee06c)" d="M 77.67 152.216879 
L 296.558182 152.216879 
" style="fill:none;stroke:#b0b0b0;stroke-linecap:square;stroke-width:0.8;"/>
     </g>
     <g id="line2d_20">
      <g>
       <use style="stroke:#000000;stroke-width:0.8;" x="77.67" xlink:href="#m4ce620ffb4" y="152.216879"/>
      </g>
     </g>
     <g id="text_11">
      <!-- −1 -->
      <g transform="translate(55.927813 156.016098)scale(0.1 -0.1)">
       <use xlink:href="#DejaVuSans-2212"/>
       <use x="83.789062" xlink:href="#DejaVuSans-31"/>
      </g>
     </g>
    </g>
    <g id="ytick_5">
     <g id="line2d_21">
      <path clip-path="url(#pe18f4ee06c)" d="M 77.67 126.2293 
L 296.558182 126.2293 
" style="fill:none;stroke:#b0b0b0;stroke-linecap:square;stroke-width:0.8;"/>
     </g>
     <g id="line2d_22">
      <g>
       <use style="stroke:#000000;stroke-width:0.8;" x="77.67" xlink:href="#m4ce620ffb4" y="126.2293"/>
      </g>
     </g>
     <g id="text_12">
      <!-- 0 -->
      <g transform="translate(64.3075 130.028519)scale(0.1 -0.1)">
       <use xlink:href="#DejaVuSans-30"/>
      </g>
     </g>
    </g>
    <g id="ytick_6">
     <g id="line2d_23">
      <path clip-path="url(#pe18f4ee06c)" d="M 77.67 100.241722 
L 296.558182 100.241722 
" style="fill:none;stroke:#b0b0b0;stroke-linecap:square;stroke-width:0.8;"/>
     </g>
     <g id="line2d_24">
      <g>
       <use style="stroke:#000000;stroke-width:0.8;" x="77.67" xlink:href="#m4ce620ffb4" y="100.241722"/>
      </g>
     </g>
     <g id="text_13">
      <!-- 1 -->
      <g transform="translate(64.3075 104.040941)scale(0.1 -0.1)">
       <use xlink:href="#DejaVuSans-31"/>
      </g>
     </g>
    </g>
    <g id="ytick_7">
     <g id="line2d_25">
      <path clip-path="url(#pe18f4ee06c)" d="M 77.67 74.254143 
L 296.558182 74.254143 
" style="fill:none;stroke:#b0b0b0;stroke-linecap:square;stroke-width:0.8;"/>
     </g>
     <g id="line2d_26">
      <g>
       <use style="stroke:#000000;stroke-width:0.8;" x="77.67" xlink:href="#m4ce620ffb4" y="74.254143"/>
      </g>
     </g>
     <g id="text_14">
      <!-- 2 -->
      <g transform="translate(64.3075 78.053362)scale(0.1 -0.1)">
       <use xlink:href="#DejaVuSans-32"/>
      </g>
     </g>
    </g>
    <g id="ytick_8">
     <g id="line2d_27">
      <path clip-path="url(#pe18f4ee06c)" d="M 77.67 48.266565 
L 296.558182 48.266565 
" style="fill:none;stroke:#b0b0b0;stroke-linecap:square;stroke-width:0.8;"/>
     </g>
     <g id="line2d_28">
      <g>
       <use style="stroke:#000000;stroke-width:0.8;" x="77.67" xlink:href="#m4ce620ffb4" y="48.266565"/>
      </g>
     </g>
     <g id="text_15">
      <!-- 3 -->
      <g transform="translate(64.3075 52.065783)scale(0.1 -0.1)">
       <use xlink:href="#DejaVuSans-33"/>
      </g>
     </g>
    </g>
   </g>
   <g id="line2d_29">
    <path clip-path="url(#pe18f4ee06c)" d="M 87.619463 85.408107 
L 88.813398 85.550379 
L 90.007334 85.973735 
L 91.201269 86.672635 
L 92.395205 87.641544 
L 93.58914 88.875882 
L 95.181055 90.923453 
L 96.772969 93.412464 
L 98.364883 96.319033 
L 100.354775 100.491975 
L 102.344668 105.189821 
L 104.732539 111.372604 
L 109.110302 123.497151 
L 112.692109 133.176636 
L 115.07998 139.021034 
L 117.069873 143.330523 
L 118.661787 146.341989 
L 120.253701 148.927881 
L 121.845615 151.064664 
L 123.03955 152.363621 
L 124.233486 153.398662 
L 125.427421 154.168803 
L 126.621357 154.674836 
L 127.815293 154.919071 
L 129.009228 154.905147 
L 130.203164 154.637923 
L 131.397099 154.123437 
L 132.591035 153.368928 
L 133.78497 152.382908 
L 135.376884 150.725433 
L 136.968798 148.702006 
L 138.560712 146.345982 
L 140.550605 142.993887 
L 142.938476 138.496208 
L 146.520283 131.169529 
L 151.296025 121.421414 
L 153.683896 117.021945 
L 155.673788 113.77046 
L 157.663681 110.979688 
L 159.255595 109.118652 
L 160.847509 107.611133 
L 162.439423 106.471029 
L 163.633359 105.861527 
L 164.827294 105.463814 
L 166.02123 105.276787 
L 167.215165 105.29808 
L 168.409101 105.523788 
L 169.603036 105.948454 
L 170.796972 106.565035 
L 172.388886 107.670831 
L 173.9808 109.078628 
L 175.572714 110.759884 
L 177.562607 113.195287 
L 179.950478 116.508402 
L 183.134306 121.346785 
L 189.103983 130.474503 
L 191.491855 133.70745 
L 193.481747 136.072166 
L 195.47164 138.074831 
L 197.063554 139.386257 
L 198.655468 140.421516 
L 200.247382 141.170102 
L 201.839296 141.626794 
L 203.43121 141.791397 
L 205.023124 141.668482 
L 206.615038 141.267121 
L 208.206952 140.600665 
L 209.798866 139.68656 
L 211.39078 138.546135 
L 213.380673 136.840695 
L 215.768544 134.458651 
L 218.952372 130.895915 
L 226.513964 122.249853 
L 228.901835 119.912098 
L 230.891727 118.233041 
L 232.88162 116.842739 
L 234.473534 115.959262 
L 236.065448 115.291154 
L 237.657362 114.844855 
L 239.249276 114.622729 
L 240.84119 114.62312 
L 242.433104 114.840562 
L 244.025018 115.265977 
L 246.014911 116.070751 
L 248.004803 117.148979 
L 250.392674 118.748817 
L 253.178524 120.937283 
L 257.158309 124.397571 
L 261.934051 128.519493 
L 264.719901 130.64791 
L 267.107772 132.198768 
L 269.097664 133.254397 
L 271.087557 134.068564 
L 273.07745 134.625218 
L 275.067342 134.916295 
L 277.057235 134.941818 
L 279.047127 134.709177 
L 281.03702 134.232878 
L 283.026912 133.53403 
L 285.414783 132.440006 
L 286.608719 131.804691 
L 286.608719 131.804691 
" style="fill:none;stroke:#1f77b4;stroke-linecap:square;stroke-width:1.5;"/>
   </g>
   <g id="line2d_30">
    <path clip-path="url(#pe18f4ee06c)" d="M 87.619463 126.229304 
L 91.599248 157.107537 
L 94.783076 180.26052 
L 97.568926 198.934646 
L 99.558818 210.898974 
L 101.150732 219.322824 
L 102.742646 226.448666 
L 103.936582 230.782056 
L 105.130517 234.128369 
L 105.926474 235.765237 
L 106.722431 236.897804 
L 107.518388 237.51321 
L 107.916367 237.6216 
L 108.314345 237.597159 
L 108.712324 237.439294 
L 109.508281 236.721881 
L 110.304238 235.476056 
L 111.100195 233.713246 
L 111.896152 231.452086 
L 113.090088 227.177547 
L 114.284023 221.93176 
L 115.875937 213.625395 
L 117.467851 204.092264 
L 119.855722 188.138322 
L 123.437529 162.202672 
L 129.805185 115.923903 
L 132.989013 94.612716 
L 135.376884 80.090864 
L 137.366777 69.281819 
L 138.958691 61.684872 
L 140.550605 55.191592 
L 141.74454 51.140212 
L 142.938476 47.858959 
L 143.734433 46.126047 
L 144.53039 44.772462 
L 145.326347 43.808749 
L 146.122304 43.242367 
L 146.918261 43.0776 
L 147.714218 43.315257 
L 148.510175 43.951889 
L 149.306132 44.981571 
L 150.102089 46.393165 
L 150.898046 48.175225 
L 152.091982 51.50648 
L 153.285917 55.566905 
L 154.877831 61.987129 
L 156.469745 69.375949 
L 158.459638 79.671972 
L 161.245488 95.392146 
L 169.603036 143.625689 
L 171.990907 155.848525 
L 173.9808 164.972 
L 175.572714 171.414173 
L 177.164628 176.973684 
L 178.358564 180.499971 
L 179.552499 183.430893 
L 180.746435 185.730522 
L 181.542392 186.899599 
L 182.338349 187.769044 
L 183.134306 188.336964 
L 183.930263 188.599592 
L 184.72622 188.557935 
L 185.522177 188.214018 
L 186.318134 187.572156 
L 187.114091 186.639299 
L 187.910048 185.423932 
L 189.103983 183.094843 
L 190.297919 180.196306 
L 191.491855 176.777305 
L 193.083769 171.503595 
L 195.073661 163.959019 
L 197.461532 153.879951 
L 201.441317 135.815617 
L 205.819081 116.18126 
L 208.206952 106.391111 
L 210.196845 99.05237 
L 211.788759 93.8509 
L 213.380673 89.339221 
L 214.972587 85.593792 
L 216.166522 83.327303 
L 217.360458 81.550952 
L 218.554393 80.280766 
L 219.35035 79.720324 
L 220.146307 79.390693 
L 220.942264 79.291951 
L 221.738221 79.422391 
L 222.534179 79.779086 
L 223.330136 80.358192 
L 224.126093 81.153612 
L 225.320028 82.737176 
L 226.513964 84.764269 
L 227.707899 87.201114 
L 229.299813 91.022672 
L 230.891727 95.408148 
L 232.88162 101.522904 
L 235.667469 110.887654 
L 243.229061 136.878747 
L 245.616932 144.0668 
L 247.606825 149.321938 
L 249.198739 152.94573 
L 250.790653 155.989655 
L 251.984588 157.86184 
L 253.178524 159.363351 
L 254.37246 160.48297 
L 255.566395 161.212506 
L 256.362352 161.480218 
L 257.158309 161.573616 
L 257.954266 161.494095 
L 258.750223 161.243923 
L 259.54618 160.826062 
L 260.740116 159.894412 
L 261.934051 158.613169 
L 263.127987 157.003608 
L 264.719901 154.389751 
L 266.311815 151.304355 
L 268.301707 146.897286 
L 270.689579 141.007051 
L 274.669364 130.451301 
L 278.649149 120.063565 
L 281.03702 114.397424 
L 283.026912 110.198709 
L 284.618826 107.262129 
L 286.21074 104.753045 
L 286.608719 104.197444 
L 286.608719 104.197444 
" style="fill:none;stroke:#ff7f0e;stroke-linecap:square;stroke-width:1.5;"/>
   </g>
   <g id="patch_3">
    <path d="M 77.67 247.3488 
L 77.67 33.3504 
" style="fill:none;stroke:#000000;stroke-linecap:square;stroke-linejoin:miter;stroke-width:0.8;"/>
   </g>
   <g id="patch_4">
    <path d="M 296.558182 247.3488 
L 296.558182 33.3504 
" style="fill:none;stroke:#000000;stroke-linecap:square;stroke-linejoin:miter;stroke-width:0.8;"/>
   </g>
   <g id="patch_5">
    <path d="M 77.67 247.3488 
L 296.558182 247.3488 
" style="fill:none;stroke:#000000;stroke-linecap:square;stroke-linejoin:miter;stroke-width:0.8;"/>
   </g>
   <g id="patch_6">
    <path d="M 77.67 33.3504 
L 296.558182 33.3504 
" style="fill:none;stroke:#000000;stroke-linecap:square;stroke-linejoin:miter;stroke-width:0.8;"/>
   </g>
   <g id="legend_1">
    <g id="patch_7">
     <path d="M 213.233182 70.70665 
L 289.558182 70.70665 
Q 291.558182 70.70665 291.558182 68.70665 
L 291.558182 40.3504 
Q 291.558182 38.3504 289.558182 38.3504 
L 213.233182 38.3504 
Q 211.233182 38.3504 211.233182 40.3504 
L 211.233182 68.70665 
Q 211.233182 70.70665 213.233182 70.70665 
z
" style="fill:#ffffff;opacity:0.8;stroke:#cccccc;stroke-linejoin:miter;"/>
    </g>
    <g id="line2d_31">
     <path d="M 215.233182 46.448837 
L 235.233182 46.448837 
" style="fill:none;stroke:#1f77b4;stroke-linecap:square;stroke-width:1.5;"/>
    </g>
    <g id="line2d_32"/>
    <g id="text_16">
     <!-- phi [rad] -->
     <defs>
      <path d="M 18.109375 8.203125 
L 18.109375 -20.796875 
L 9.078125 -20.796875 
L 9.078125 54.6875 
L 18.109375 54.6875 
L 18.109375 46.390625 
Q 20.953125 51.265625 25.265625 53.625 
Q 29.59375 56 35.59375 56 
Q 45.5625 56 51.78125 48.09375 
Q 58.015625 40.1875 58.015625 27.296875 
Q 58.015625 14.40625 51.78125 6.484375 
Q 45.5625 -1.421875 35.59375 -1.421875 
Q 29.59375 -1.421875 25.265625 0.953125 
Q 20.953125 3.328125 18.109375 8.203125 
z
M 48.6875 27.296875 
Q 48.6875 37.203125 44.609375 42.84375 
Q 40.53125 48.484375 33.40625 48.484375 
Q 26.265625 48.484375 22.1875 42.84375 
Q 18.109375 37.203125 18.109375 27.296875 
Q 18.109375 17.390625 22.1875 11.75 
Q 26.265625 6.109375 33.40625 6.109375 
Q 40.53125 6.109375 44.609375 11.75 
Q 48.6875 17.390625 48.6875 27.296875 
z
" id="DejaVuSans-70"/>
      <path d="M 54.890625 33.015625 
L 54.890625 0 
L 45.90625 0 
L 45.90625 32.71875 
Q 45.90625 40.484375 42.875 44.328125 
Q 39.84375 48.1875 33.796875 48.1875 
Q 26.515625 48.1875 22.3125 43.546875 
Q 18.109375 38.921875 18.109375 30.90625 
L 18.109375 0 
L 9.078125 0 
L 9.078125 75.984375 
L 18.109375 75.984375 
L 18.109375 46.1875 
Q 21.34375 51.125 25.703125 53.5625 
Q 30.078125 56 35.796875 56 
Q 45.21875 56 50.046875 50.171875 
Q 54.890625 44.34375 54.890625 33.015625 
z
" id="DejaVuSans-68"/>
      <path d="M 41.109375 46.296875 
Q 39.59375 47.171875 37.8125 47.578125 
Q 36.03125 48 33.890625 48 
Q 26.265625 48 22.1875 43.046875 
Q 18.109375 38.09375 18.109375 28.8125 
L 18.109375 0 
L 9.078125 0 
L 9.078125 54.6875 
L 18.109375 54.6875 
L 18.109375 46.1875 
Q 20.953125 51.171875 25.484375 53.578125 
Q 30.03125 56 36.53125 56 
Q 37.453125 56 38.578125 55.875 
Q 39.703125 55.765625 41.0625 55.515625 
z
" id="DejaVuSans-72"/>
      <path d="M 34.28125 27.484375 
Q 23.390625 27.484375 19.1875 25 
Q 14.984375 22.515625 14.984375 16.5 
Q 14.984375 11.71875 18.140625 8.90625 
Q 21.296875 6.109375 26.703125 6.109375 
Q 34.1875 6.109375 38.703125 11.40625 
Q 43.21875 16.703125 43.21875 25.484375 
L 43.21875 27.484375 
z
M 52.203125 31.203125 
L 52.203125 0 
L 43.21875 0 
L 43.21875 8.296875 
Q 40.140625 3.328125 35.546875 0.953125 
Q 30.953125 -1.421875 24.3125 -1.421875 
Q 15.921875 -1.421875 10.953125 3.296875 
Q 6 8.015625 6 15.921875 
Q 6 25.140625 12.171875 29.828125 
Q 18.359375 34.515625 30.609375 34.515625 
L 43.21875 34.515625 
L 43.21875 35.40625 
Q 43.21875 41.609375 39.140625 45 
Q 35.0625 48.390625 27.6875 48.390625 
Q 23 48.390625 18.546875 47.265625 
Q 14.109375 46.140625 10.015625 43.890625 
L 10.015625 52.203125 
Q 14.9375 54.109375 19.578125 55.046875 
Q 24.21875 56 28.609375 56 
Q 40.484375 56 46.34375 49.84375 
Q 52.203125 43.703125 52.203125 31.203125 
z
" id="DejaVuSans-61"/>
      <path d="M 45.40625 46.390625 
L 45.40625 75.984375 
L 54.390625 75.984375 
L 54.390625 0 
L 45.40625 0 
L 45.40625 8.203125 
Q 42.578125 3.328125 38.25 0.953125 
Q 33.9375 -1.421875 27.875 -1.421875 
Q 17.96875 -1.421875 11.734375 6.484375 
Q 5.515625 14.40625 5.515625 27.296875 
Q 5.515625 40.1875 11.734375 48.09375 
Q 17.96875 56 27.875 56 
Q 33.9375 56 38.25 53.625 
Q 42.578125 51.265625 45.40625 46.390625 
z
M 14.796875 27.296875 
Q 14.796875 17.390625 18.875 11.75 
Q 22.953125 6.109375 30.078125 6.109375 
Q 37.203125 6.109375 41.296875 11.75 
Q 45.40625 17.390625 45.40625 27.296875 
Q 45.40625 37.203125 41.296875 42.84375 
Q 37.203125 48.484375 30.078125 48.484375 
Q 22.953125 48.484375 18.875 42.84375 
Q 14.796875 37.203125 14.796875 27.296875 
z
" id="DejaVuSans-64"/>
     </defs>
     <g transform="translate(243.233182 49.948837)scale(0.1 -0.1)">
      <use xlink:href="#DejaVuSans-70"/>
      <use x="63.476562" xlink:href="#DejaVuSans-68"/>
      <use x="126.855469" xlink:href="#DejaVuSans-69"/>
      <use x="154.638672" xlink:href="#DejaVuSans-20"/>
      <use x="186.425781" xlink:href="#DejaVuSans-5b"/>
      <use x="225.439453" xlink:href="#DejaVuSans-72"/>
      <use x="266.552734" xlink:href="#DejaVuSans-61"/>
      <use x="327.832031" xlink:href="#DejaVuSans-64"/>
      <use x="391.308594" xlink:href="#DejaVuSans-5d"/>
     </g>
    </g>
    <g id="line2d_33">
     <path d="M 215.233182 61.126962 
L 235.233182 61.126962 
" style="fill:none;stroke:#ff7f0e;stroke-linecap:square;stroke-width:1.5;"/>
    </g>
    <g id="line2d_34"/>
    <g id="text_17">
     <!-- w [rad/s] -->
     <defs>
      <path d="M 4.203125 54.6875 
L 13.1875 54.6875 
L 24.421875 12.015625 
L 35.59375 54.6875 
L 46.1875 54.6875 
L 57.421875 12.015625 
L 68.609375 54.6875 
L 77.59375 54.6875 
L 63.28125 0 
L 52.6875 0 
L 40.921875 44.828125 
L 29.109375 0 
L 18.5 0 
z
" id="DejaVuSans-77"/>
      <path d="M 25.390625 72.90625 
L 33.6875 72.90625 
L 8.296875 -9.28125 
L 0 -9.28125 
z
" id="DejaVuSans-2f"/>
     </defs>
     <g transform="translate(243.233182 64.626962)scale(0.1 -0.1)">
      <use xlink:href="#DejaVuSans-77"/>
      <use x="81.787109" xlink:href="#DejaVuSans-20"/>
      <use x="113.574219" xlink:href="#DejaVuSans-5b"/>
      <use x="152.587891" xlink:href="#DejaVuSans-72"/>
      <use x="193.701172" xlink:href="#DejaVuSans-61"/>
      <use x="254.980469" xlink:href="#DejaVuSans-64"/>
      <use x="318.457031" xlink:href="#DejaVuSans-2f"/>
      <use x="352.148438" xlink:href="#DejaVuSans-73"/>
      <use x="404.248047" xlink:href="#DejaVuSans-5d"/>
     </g>
    </g>
   </g>
  </g>
  <g id="axes_2">
   <g id="patch_8">
    <path d="M 340.335818 247.3488 
L 559.224 247.3488 
L 559.224 33.3504 
L 340.335818 33.3504 
z
" style="fill:#ffffff;"/>
   </g>
   <g id="matplotlib.axis_3">
    <g id="xtick_7">
     <g id="line2d_35">
      <path clip-path="url(#p704cb137f9)" d="M 350.285281 247.3488 
L 350.285281 33.3504 
" style="fill:none;stroke:#b0b0b0;stroke-linecap:square;stroke-width:0.8;"/>
     </g>
     <g id="line2d_36">
      <g>
       <use style="stroke:#000000;stroke-width:0.8;" x="350.285281" xlink:href="#m38e28de6e6" y="247.3488"/>
      </g>
     </g>
     <g id="text_18">
      <!-- 0 -->
      <g transform="translate(347.104031 261.947238)scale(0.1 -0.1)">
       <use xlink:href="#DejaVuSans-30"/>
      </g>
     </g>
    </g>
    <g id="xtick_8">
     <g id="line2d_37">
      <path clip-path="url(#p704cb137f9)" d="M 390.083132 247.3488 
L 390.083132 33.3504 
" style="fill:none;stroke:#b0b0b0;stroke-linecap:square;stroke-width:0.8;"/>
     </g>
     <g id="line2d_38">
      <g>
       <use style="stroke:#000000;stroke-width:0.8;" x="390.083132" xlink:href="#m38e28de6e6" y="247.3488"/>
      </g>
     </g>
     <g id="text_19">
      <!-- 1 -->
      <g transform="translate(386.901882 261.947238)scale(0.1 -0.1)">
       <use xlink:href="#DejaVuSans-31"/>
      </g>
     </g>
    </g>
    <g id="xtick_9">
     <g id="line2d_39">
      <path clip-path="url(#p704cb137f9)" d="M 429.880983 247.3488 
L 429.880983 33.3504 
" style="fill:none;stroke:#b0b0b0;stroke-linecap:square;stroke-width:0.8;"/>
     </g>
     <g id="line2d_40">
      <g>
       <use style="stroke:#000000;stroke-width:0.8;" x="429.880983" xlink:href="#m38e28de6e6" y="247.3488"/>
      </g>
     </g>
     <g id="text_20">
      <!-- 2 -->
      <g transform="translate(426.699733 261.947238)scale(0.1 -0.1)">
       <use xlink:href="#DejaVuSans-32"/>
      </g>
     </g>
    </g>
    <g id="xtick_10">
     <g id="line2d_41">
      <path clip-path="url(#p704cb137f9)" d="M 469.678835 247.3488 
L 469.678835 33.3504 
" style="fill:none;stroke:#b0b0b0;stroke-linecap:square;stroke-width:0.8;"/>
     </g>
     <g id="line2d_42">
      <g>
       <use style="stroke:#000000;stroke-width:0.8;" x="469.678835" xlink:href="#m38e28de6e6" y="247.3488"/>
      </g>
     </g>
     <g id="text_21">
      <!-- 3 -->
      <g transform="translate(466.497585 261.947238)scale(0.1 -0.1)">
       <use xlink:href="#DejaVuSans-33"/>
      </g>
     </g>
    </g>
    <g id="xtick_11">
     <g id="line2d_43">
      <path clip-path="url(#p704cb137f9)" d="M 509.476686 247.3488 
L 509.476686 33.3504 
" style="fill:none;stroke:#b0b0b0;stroke-linecap:square;stroke-width:0.8;"/>
     </g>
     <g id="line2d_44">
      <g>
       <use style="stroke:#000000;stroke-width:0.8;" x="509.476686" xlink:href="#m38e28de6e6" y="247.3488"/>
      </g>
     </g>
     <g id="text_22">
      <!-- 4 -->
      <g transform="translate(506.295436 261.947238)scale(0.1 -0.1)">
       <use xlink:href="#DejaVuSans-34"/>
      </g>
     </g>
    </g>
    <g id="xtick_12">
     <g id="line2d_45">
      <path clip-path="url(#p704cb137f9)" d="M 549.274537 247.3488 
L 549.274537 33.3504 
" style="fill:none;stroke:#b0b0b0;stroke-linecap:square;stroke-width:0.8;"/>
     </g>
     <g id="line2d_46">
      <g>
       <use style="stroke:#000000;stroke-width:0.8;" x="549.274537" xlink:href="#m38e28de6e6" y="247.3488"/>
      </g>
     </g>
     <g id="text_23">
      <!-- 5 -->
      <g transform="translate(546.093287 261.947238)scale(0.1 -0.1)">
       <use xlink:href="#DejaVuSans-35"/>
      </g>
     </g>
    </g>
    <g id="text_24">
     <!-- time [s] -->
     <g transform="translate(430.388503 275.625362)scale(0.1 -0.1)">
      <use xlink:href="#DejaVuSans-74"/>
      <use x="39.208984" xlink:href="#DejaVuSans-69"/>
      <use x="66.992188" xlink:href="#DejaVuSans-6d"/>
      <use x="164.404297" xlink:href="#DejaVuSans-65"/>
      <use x="225.927734" xlink:href="#DejaVuSans-20"/>
      <use x="257.714844" xlink:href="#DejaVuSans-5b"/>
      <use x="296.728516" xlink:href="#DejaVuSans-73"/>
      <use x="348.828125" xlink:href="#DejaVuSans-5d"/>
     </g>
    </g>
   </g>
   <g id="matplotlib.axis_4">
    <g id="ytick_9">
     <g id="line2d_47">
      <path clip-path="url(#p704cb137f9)" d="M 340.335818 218.967089 
L 559.224 218.967089 
" style="fill:none;stroke:#b0b0b0;stroke-linecap:square;stroke-width:0.8;"/>
     </g>
     <g id="line2d_48">
      <g>
       <use style="stroke:#000000;stroke-width:0.8;" x="340.335818" xlink:href="#m4ce620ffb4" y="218.967089"/>
      </g>
     </g>
     <g id="text_25">
      <!-- −10 -->
      <g transform="translate(312.231131 222.766308)scale(0.1 -0.1)">
       <use xlink:href="#DejaVuSans-2212"/>
       <use x="83.789062" xlink:href="#DejaVuSans-31"/>
       <use x="147.412109" xlink:href="#DejaVuSans-30"/>
      </g>
     </g>
    </g>
    <g id="ytick_10">
     <g id="line2d_49">
      <path clip-path="url(#p704cb137f9)" d="M 340.335818 177.741648 
L 559.224 177.741648 
" style="fill:none;stroke:#b0b0b0;stroke-linecap:square;stroke-width:0.8;"/>
     </g>
     <g id="line2d_50">
      <g>
       <use style="stroke:#000000;stroke-width:0.8;" x="340.335818" xlink:href="#m4ce620ffb4" y="177.741648"/>
      </g>
     </g>
     <g id="text_26">
      <!-- −5 -->
      <g transform="translate(318.593631 181.540867)scale(0.1 -0.1)">
       <use xlink:href="#DejaVuSans-2212"/>
       <use x="83.789062" xlink:href="#DejaVuSans-35"/>
      </g>
     </g>
    </g>
    <g id="ytick_11">
     <g id="line2d_51">
      <path clip-path="url(#p704cb137f9)" d="M 340.335818 136.516208 
L 559.224 136.516208 
" style="fill:none;stroke:#b0b0b0;stroke-linecap:square;stroke-width:0.8;"/>
     </g>
     <g id="line2d_52">
      <g>
       <use style="stroke:#000000;stroke-width:0.8;" x="340.335818" xlink:href="#m4ce620ffb4" y="136.516208"/>
      </g>
     </g>
     <g id="text_27">
      <!-- 0 -->
      <g transform="translate(326.973318 140.315426)scale(0.1 -0.1)">
       <use xlink:href="#DejaVuSans-30"/>
      </g>
     </g>
    </g>
    <g id="ytick_12">
     <g id="line2d_53">
      <path clip-path="url(#p704cb137f9)" d="M 340.335818 95.290767 
L 559.224 95.290767 
" style="fill:none;stroke:#b0b0b0;stroke-linecap:square;stroke-width:0.8;"/>
     </g>
     <g id="line2d_54">
      <g>
       <use style="stroke:#000000;stroke-width:0.8;" x="340.335818" xlink:href="#m4ce620ffb4" y="95.290767"/>
      </g>
     </g>
     <g id="text_28">
      <!-- 5 -->
      <g transform="translate(326.973318 99.089986)scale(0.1 -0.1)">
       <use xlink:href="#DejaVuSans-35"/>
      </g>
     </g>
    </g>
    <g id="ytick_13">
     <g id="line2d_55">
      <path clip-path="url(#p704cb137f9)" d="M 340.335818 54.065327 
L 559.224 54.065327 
" style="fill:none;stroke:#b0b0b0;stroke-linecap:square;stroke-width:0.8;"/>
     </g>
     <g id="line2d_56">
      <g>
       <use style="stroke:#000000;stroke-width:0.8;" x="340.335818" xlink:href="#m4ce620ffb4" y="54.065327"/>
      </g>
     </g>
     <g id="text_29">
      <!-- 10 -->
      <g transform="translate(320.610818 57.864545)scale(0.1 -0.1)">
       <use xlink:href="#DejaVuSans-31"/>
       <use x="63.623047" xlink:href="#DejaVuSans-30"/>
      </g>
     </g>
    </g>
   </g>
   <g id="line2d_57">
    <path clip-path="url(#p704cb137f9)" d="M 350.285281 237.6216 
L 355.459002 229.22934 
L 357.050916 225.994877 
L 358.244851 223.04356 
L 359.438787 219.465875 
L 360.632722 215.099429 
L 361.826658 209.790834 
L 363.020593 203.409942 
L 364.214529 195.865966 
L 365.408464 187.124284 
L 367.000379 173.67594 
L 368.990271 154.450538 
L 375.755906 85.995005 
L 377.34782 73.353365 
L 378.541755 65.379911 
L 379.735691 58.750484 
L 380.929626 53.439553 
L 382.123562 49.370311 
L 382.919519 47.293066 
L 383.715476 45.680072 
L 384.511433 44.491248 
L 385.30739 43.686533 
L 386.103347 43.227305 
L 386.899304 43.0776 
L 387.695261 43.205065 
L 388.491218 43.581627 
L 389.287175 44.18396 
L 390.481111 45.472171 
L 391.675046 47.188198 
L 392.868982 49.316939 
L 394.062917 51.866348 
L 395.256853 54.864127 
L 396.450788 58.353253 
L 397.644724 62.386411 
L 399.236638 68.706196 
L 400.828552 76.208482 
L 402.420466 84.962685 
L 404.01238 94.959134 
L 406.002273 109.017978 
L 408.788122 130.704147 
L 412.767907 161.87641 
L 414.7578 175.702134 
L 416.349714 185.306824 
L 417.941628 193.403031 
L 419.135564 198.433838 
L 420.329499 202.571067 
L 421.523435 205.840402 
L 422.71737 208.285688 
L 423.513327 209.483869 
L 424.309284 210.356095 
L 425.105241 210.919329 
L 425.901198 211.189658 
L 426.697155 211.181734 
L 427.493112 210.90876 
L 428.289069 210.382357 
L 429.085026 209.611768 
L 429.880983 208.603999 
L 431.074919 206.658602 
L 432.268855 204.201084 
L 433.46279 201.23448 
L 434.656726 197.757143 
L 436.24864 192.321439 
L 437.840554 185.975125 
L 439.432468 178.745278 
L 441.42236 168.57139 
L 443.810231 155.030989 
L 451.371823 110.833613 
L 453.361716 101.217596 
L 454.95363 94.646244 
L 456.545544 89.176428 
L 457.739479 85.822984 
L 458.933415 83.113295 
L 460.12735 81.037166 
L 460.923307 79.996493 
L 461.719264 79.223084 
L 462.515221 78.709885 
L 463.311179 78.449607 
L 464.107136 78.434991 
L 464.903093 78.658998 
L 465.69905 79.114959 
L 466.495007 79.796662 
L 467.290964 80.698373 
L 468.484899 82.452018 
L 469.678835 84.672532 
L 470.87277 87.344385 
L 472.464684 91.580873 
L 474.056598 96.545948 
L 475.648512 102.180525 
L 477.638405 110.042323 
L 480.026276 120.392826 
L 487.587868 154.060503 
L 489.57776 161.585529 
L 491.169674 166.839068 
L 492.761588 171.318081 
L 493.955524 174.135255 
L 495.14946 176.473348 
L 496.343395 178.327286 
L 497.537331 179.698616 
L 498.333288 180.347528 
L 499.129245 180.787502 
L 499.925202 181.021698 
L 500.721159 181.053988 
L 501.517116 180.888519 
L 502.313073 180.529566 
L 503.10903 179.981727 
L 504.302965 178.816189 
L 505.496901 177.253001 
L 506.690836 175.310131 
L 507.884772 173.007152 
L 509.476686 169.414084 
L 511.0686 165.279191 
L 513.058493 159.457253 
L 515.446364 151.735838 
L 524.599869 121.196155 
L 526.589762 115.769204 
L 528.181676 112.020053 
L 529.77359 108.859747 
L 530.967526 106.900139 
L 532.161461 105.304348 
L 533.355397 104.077746 
L 534.549332 103.221324 
L 535.743268 102.732768 
L 536.539225 102.608761 
L 537.335182 102.643432 
L 538.131139 102.833925 
L 539.325074 103.404815 
L 540.51901 104.306649 
L 541.712945 105.525067 
L 542.906881 107.043804 
L 544.498795 109.503964 
L 546.090709 112.415807 
L 548.080602 116.603621 
L 549.274537 119.359799 
L 549.274537 119.359799 
" style="fill:none;stroke:#1f77b4;stroke-linecap:square;stroke-width:1.5;"/>
   </g>
   <g id="patch_9">
    <path d="M 340.335818 247.3488 
L 340.335818 33.3504 
" style="fill:none;stroke:#000000;stroke-linecap:square;stroke-linejoin:miter;stroke-width:0.8;"/>
   </g>
   <g id="patch_10">
    <path d="M 559.224 247.3488 
L 559.224 33.3504 
" style="fill:none;stroke:#000000;stroke-linecap:square;stroke-linejoin:miter;stroke-width:0.8;"/>
   </g>
   <g id="patch_11">
    <path d="M 340.335818 247.3488 
L 559.224 247.3488 
" style="fill:none;stroke:#000000;stroke-linecap:square;stroke-linejoin:miter;stroke-width:0.8;"/>
   </g>
   <g id="patch_12">
    <path d="M 340.335818 33.3504 
L 559.224 33.3504 
" style="fill:none;stroke:#000000;stroke-linecap:square;stroke-linejoin:miter;stroke-width:0.8;"/>
   </g>
   <g id="legend_2">
    <g id="patch_13">
     <path d="M 463.206812 56.028525 
L 552.224 56.028525 
Q 554.224 56.028525 554.224 54.028525 
L 554.224 40.3504 
Q 554.224 38.3504 552.224 38.3504 
L 463.206812 38.3504 
Q 461.206812 38.3504 461.206812 40.3504 
L 461.206812 54.028525 
Q 461.206812 56.028525 463.206812 56.028525 
z
" style="fill:#ffffff;opacity:0.8;stroke:#cccccc;stroke-linejoin:miter;"/>
    </g>
    <g id="line2d_58">
     <path d="M 465.206812 46.448837 
L 485.206812 46.448837 
" style="fill:none;stroke:#1f77b4;stroke-linecap:square;stroke-width:1.5;"/>
    </g>
    <g id="line2d_59"/>
    <g id="text_30">
     <!-- a [rad/s^2] -->
     <defs>
      <path d="M 46.6875 72.90625 
L 73.1875 45.703125 
L 63.375 45.703125 
L 41.890625 64.984375 
L 20.40625 45.703125 
L 10.59375 45.703125 
L 37.109375 72.90625 
z
" id="DejaVuSans-5e"/>
     </defs>
     <g transform="translate(493.206812 49.948837)scale(0.1 -0.1)">
      <use xlink:href="#DejaVuSans-61"/>
      <use x="61.279297" xlink:href="#DejaVuSans-20"/>
      <use x="93.066406" xlink:href="#DejaVuSans-5b"/>
      <use x="132.080078" xlink:href="#DejaVuSans-72"/>
      <use x="173.193359" xlink:href="#DejaVuSans-61"/>
      <use x="234.472656" xlink:href="#DejaVuSans-64"/>
      <use x="297.949219" xlink:href="#DejaVuSans-2f"/>
      <use x="331.640625" xlink:href="#DejaVuSans-73"/>
      <use x="383.740234" xlink:href="#DejaVuSans-5e"/>
      <use x="467.529297" xlink:href="#DejaVuSans-32"/>
      <use x="531.152344" xlink:href="#DejaVuSans-5d"/>
     </g>
    </g>
   </g>
  </g>
  <g id="text_31">
   <!-- Pendulum -->
   <defs>
    <path d="M 19.671875 64.796875 
L 19.671875 37.40625 
L 32.078125 37.40625 
Q 38.96875 37.40625 42.71875 40.96875 
Q 46.484375 44.53125 46.484375 51.125 
Q 46.484375 57.671875 42.71875 61.234375 
Q 38.96875 64.796875 32.078125 64.796875 
z
M 9.8125 72.90625 
L 32.078125 72.90625 
Q 44.34375 72.90625 50.609375 67.359375 
Q 56.890625 61.8125 56.890625 51.125 
Q 56.890625 40.328125 50.609375 34.8125 
Q 44.34375 29.296875 32.078125 29.296875 
L 19.671875 29.296875 
L 19.671875 0 
L 9.8125 0 
z
" id="DejaVuSans-50"/>
    <path d="M 54.890625 33.015625 
L 54.890625 0 
L 45.90625 0 
L 45.90625 32.71875 
Q 45.90625 40.484375 42.875 44.328125 
Q 39.84375 48.1875 33.796875 48.1875 
Q 26.515625 48.1875 22.3125 43.546875 
Q 18.109375 38.921875 18.109375 30.90625 
L 18.109375 0 
L 9.078125 0 
L 9.078125 54.6875 
L 18.109375 54.6875 
L 18.109375 46.1875 
Q 21.34375 51.125 25.703125 53.5625 
Q 30.078125 56 35.796875 56 
Q 45.21875 56 50.046875 50.171875 
Q 54.890625 44.34375 54.890625 33.015625 
z
" id="DejaVuSans-6e"/>
    <path d="M 8.5 21.578125 
L 8.5 54.6875 
L 17.484375 54.6875 
L 17.484375 21.921875 
Q 17.484375 14.15625 20.5 10.265625 
Q 23.53125 6.390625 29.59375 6.390625 
Q 36.859375 6.390625 41.078125 11.03125 
Q 45.3125 15.671875 45.3125 23.6875 
L 45.3125 54.6875 
L 54.296875 54.6875 
L 54.296875 0 
L 45.3125 0 
L 45.3125 8.40625 
Q 42.046875 3.421875 37.71875 1 
Q 33.40625 -1.421875 27.6875 -1.421875 
Q 18.265625 -1.421875 13.375 4.4375 
Q 8.5 10.296875 8.5 21.578125 
z
M 31.109375 56 
z
" id="DejaVuSans-75"/>
    <path d="M 9.421875 75.984375 
L 18.40625 75.984375 
L 18.40625 0 
L 9.421875 0 
z
" id="DejaVuSans-6c"/>
   </defs>
   <g transform="translate(285.651094 13.156837)scale(0.1 -0.1)">
    <use xlink:href="#DejaVuSans-50"/>
    <use x="60.255859" xlink:href="#DejaVuSans-65"/>
    <use x="121.779297" xlink:href="#DejaVuSans-6e"/>
    <use x="185.158203" xlink:href="#DejaVuSans-64"/>
    <use x="248.634766" xlink:href="#DejaVuSans-75"/>
    <use x="312.013672" xlink:href="#DejaVuSans-6c"/>
    <use x="339.796875" xlink:href="#DejaVuSans-75"/>
    <use x="403.175781" xlink:href="#DejaVuSans-6d"/>
   </g>
  </g>
 </g>
 <defs>
  <clipPath id="pe18f4ee06c">
   <rect height="213.9984" width="218.888182" x="77.67" y="33.3504"/>
  </clipPath>
  <clipPath id="p704cb137f9">
   <rect height="213.9984" width="218.888182" x="340.335818" y="33.3504"/>
  </clipPath>
 </defs>
</svg>
